<svg width="26" height="25" viewBox="0 0 26 25" fill="none" xmlns="http://www.w3.org/2000/svg">
<path fill-rule="evenodd" clip-rule="evenodd" d="M2.99413 0H23.0006C24.6582 0 25.9947 1.31966 26 2.96923V16C26 17.6443 24.6582 18.9588 23.0059 18.9588H10.5715L4.96742 24.0227C4.79903 24.1693 4.58328 24.2636 4.36754 24.2636C4.24651 24.2636 4.12022 24.2374 4.00445 24.185C3.68347 24.0436 3.47298 23.7242 3.47298 23.3733V18.9588H2.99413C1.33657 18.9588 0 17.6443 0 16V2.96923C0 1.31966 1.33657 0 2.99413 0ZM23.0006 17.1783C23.6689 17.1783 24.2056 16.6651 24.2056 16H24.2109V2.96923C24.2109 2.30417 23.6742 1.78049 23.0059 1.78049H2.99413C2.32585 1.78049 1.78911 2.30417 1.78911 2.96923V16C1.78911 16.6651 2.32585 17.1783 2.99413 17.1783H4.36754C4.86217 17.1783 5.26209 17.6024 5.26209 18.0947V21.3677L9.62437 17.4192C9.78749 17.2725 10.0032 17.1783 10.2242 17.1783H23.0006ZM6.3881 11.6256H19.6065C20.1011 11.6256 20.4958 12.0236 20.4958 12.5158C20.4958 13.0081 20.0959 13.4061 19.6012 13.4061H6.3881C5.89346 13.4061 5.49354 13.0081 5.49354 12.5158C5.49354 12.0236 5.89346 11.6256 6.3881 11.6256ZM19.6065 8.16932H6.3881C5.89346 8.16932 5.49354 8.56731 5.49354 9.05957C5.49354 9.55182 5.89346 9.94981 6.3881 9.94981H19.6012C20.0959 9.94981 20.4958 9.55182 20.4958 9.05957C20.4958 8.56731 20.1011 8.16932 19.6065 8.16932ZM11.4344 6.44119H6.3881C5.89346 6.44119 5.49354 6.0432 5.49354 5.55094C5.49354 5.05869 5.89346 4.6607 6.3881 4.6607H11.4344C11.9291 4.6607 12.329 5.05869 12.329 5.55094C12.329 6.0432 11.9291 6.44119 11.4344 6.44119Z" fill="#5A5A5A"/>
</svg>
