<svg width="32" height="32" viewBox="0 0 32 32" fill="none" xmlns="http://www.w3.org/2000/svg">
<rect width="32" height="32" rx="16" fill="#025833"/>
<path d="M16 0C7.17297 0 0 7.17298 0 16C0 24.8271 7.17297 32 16 32C24.8271 32 32 24.8271 32 16C32 7.17298 24.8271 0 16 0ZM21.5875 8.79533C21.6945 8.79345 21.8009 8.81305 21.9002 8.853C21.9995 8.89295 22.0898 8.95248 22.1657 9.02795C22.2416 9.10342 22.3016 9.19333 22.3421 9.29241C22.3826 9.39148 22.4029 9.49771 22.4016 9.60475V12.8047C22.4022 12.9104 22.3819 13.0152 22.3417 13.113C22.3016 13.2108 22.2425 13.2997 22.1678 13.3745C22.0932 13.4493 22.0044 13.5086 21.9067 13.5489C21.8089 13.5892 21.7042 13.6098 21.5985 13.6094H18.4047C18.2993 13.6098 18.1948 13.5894 18.0973 13.5494C17.9998 13.5093 17.9112 13.4504 17.8365 13.376C17.7618 13.3016 17.7025 13.2131 17.6621 13.1158C17.6217 13.0184 17.6008 12.914 17.6008 12.8086C17.6008 12.7032 17.6217 12.5988 17.6621 12.5014C17.7025 12.404 17.7618 12.3157 17.8365 12.2413C17.9112 12.1669 17.9998 12.108 18.0973 12.0679C18.1948 12.0278 18.2993 12.0074 18.4047 12.0078H19.8954C18.8659 11.0011 17.4809 10.4078 16 10.4078C12.8976 10.4078 10.4016 12.9038 10.4016 16.0062C10.4016 19.1086 12.8976 21.6047 16 21.6047C19.1024 21.6047 21.6047 19.1086 21.6047 16.0062C21.5952 15.8958 21.6087 15.7847 21.6445 15.6798C21.6802 15.5749 21.7373 15.4785 21.8123 15.3969C21.8872 15.3152 21.9783 15.25 22.0797 15.2054C22.1812 15.1608 22.2908 15.1378 22.4016 15.1378C22.5124 15.1378 22.622 15.1608 22.7235 15.2054C22.8249 15.25 22.916 15.3152 22.9909 15.3969C23.0659 15.4785 23.123 15.5749 23.1587 15.6798C23.1945 15.7847 23.208 15.8958 23.1985 16.0062C23.1985 19.9731 19.9669 23.2047 16 23.2047C12.0332 23.2047 8.80161 19.9731 8.80161 16.0062C8.80161 12.0394 12.0332 8.80788 16 8.80788C17.8012 8.80788 19.5012 9.49005 20.8016 10.6625V9.60475C20.7991 9.39338 20.8804 9.18957 21.0276 9.03792C21.1749 8.88626 21.3762 8.79906 21.5875 8.79533V8.79533Z" fill="#90EC7D"/>
</svg>
