<svg width="95" height="18" viewBox="0 0 95 18" fill="none" xmlns="http://www.w3.org/2000/svg">
<g clip-path="url(#clip0)">
<path d="M5.35189 9.51613L2.7299 15.4061H0.816895L3.69789 9.10613C2.34289 8.41813 1.44089 7.17213 1.44089 4.87113C1.43989 1.64813 3.48189 0.0361328 5.91189 0.0361328H8.38389V15.4061H6.72789V9.51613H5.35189ZM6.72789 1.43613H5.84689C4.51389 1.43613 3.2249 2.31713 3.2249 4.87513C3.2249 7.34713 4.40689 8.14313 5.84689 8.14313H6.72789V1.43613Z" fill="white"/>
<path d="M16.3607 4.57225V15.4063H14.7047V10.5483H12.2117V15.4063H10.5347V4.57225H12.2117V9.17225H14.7057V4.57225H16.3607ZM24.9807 17.5343H23.4807V15.4063H18.8327V17.5343H17.3327V14.0343H17.9987C18.9877 11.7343 19.0987 8.38125 19.0987 5.50025V4.57625H24.1287V14.0343H24.9887V17.5343H24.9807ZM22.4697 5.92625H20.5997V6.12025C20.5997 8.39925 20.4927 11.7303 19.5897 14.0303H22.4697V5.93025V5.92625ZM29.6067 15.5563C27.3707 15.5563 25.9957 13.7723 25.9957 10.4403C25.9957 6.95725 26.9627 4.42125 29.2637 4.42125C31.0697 4.42125 32.2517 5.77525 32.2517 9.45125V10.3763H27.7317C27.7317 12.8273 28.4197 14.1163 29.7527 14.1163C30.52 14.0956 31.2626 13.8405 31.8807 13.3853L32.2677 14.6743C31.5047 15.2626 30.565 15.5752 29.6017 15.5613L29.6067 15.5563ZM27.7577 9.00025H30.5307C30.5307 7.15125 30.2307 5.80025 29.2627 5.80025C28.2257 5.79725 27.8607 7.06125 27.7537 9.00025H27.7577ZM35.6467 10.0103V15.4103H33.9697V4.57225H35.6467V9.58125L38.2467 4.57225H39.9467L37.2597 9.66725L40.3337 15.4073H38.5017L35.6467 10.0103ZM40.5467 9.98925C40.5467 6.58925 41.8587 4.42125 44.3947 4.42125C45.1032 4.39519 45.8023 4.59058 46.3947 4.98025L46.1587 6.57125C45.6691 6.12138 45.0385 5.85556 44.3747 5.81925C43.1747 5.81925 42.3107 7.17325 42.3107 9.90325C42.3107 12.6113 42.9557 14.1593 44.3107 14.1593C44.9806 14.1682 45.6306 13.9312 46.1377 13.4933L46.5247 14.7403C45.9025 15.2879 45.0962 15.5798 44.2677 15.5573C41.9407 15.5613 40.5437 13.6873 40.5437 9.98925H40.5467Z" fill="white"/>
<path d="M57.922 15.4061H51.344L51.193 17.9641H50.355V14.5251H50.806C51.558 13.9011 51.924 12.1821 52.139 9.98913C52.354 7.71013 52.418 4.31413 52.483 0.0361328H57.857V14.5251H58.911V17.9641H58.072L57.922 15.4061ZM56.778 0.917132H53.446C53.381 4.80813 53.274 7.77413 53.102 9.98913C52.909 12.2891 52.565 13.8151 51.984 14.5251H56.778V0.917132Z" fill="white"/>
<path d="M63.3628 14.739C63.7933 14.7299 64.2157 14.6202 64.5963 14.4188C64.9769 14.2174 65.3051 13.9298 65.5548 13.579L65.8778 14.395C65.5802 14.7831 65.1958 15.0962 64.7554 15.3089C64.315 15.5217 63.8308 15.6282 63.3418 15.62C61.0418 15.62 59.9878 13.535 59.9878 9.98796C59.9878 6.44096 61.3208 4.35596 63.1478 4.35596C65.0178 4.35596 66.2208 6.31196 65.8778 10.156H60.9778C61.0198 13.127 61.7928 14.739 63.3628 14.739ZM60.9978 9.36396H64.9328C65.1048 6.48396 64.2448 5.19396 63.1488 5.19396C62.0088 5.19496 61.0818 6.65596 60.9978 9.36496V9.36396Z" fill="white"/>
<path d="M72.5 10.1823H68.8V15.4063H67.79V4.57227H68.8V9.36526H72.5V4.57227H73.51V15.4063H72.5V10.1823Z" fill="white"/>
<path d="M75.8989 4.57227H76.9079V8.59227H77.7079C78.1647 8.54083 78.6273 8.59254 79.0615 8.74358C79.4956 8.89463 79.8904 9.14117 80.2167 9.46503C80.5429 9.78889 80.7924 10.1818 80.9466 10.6149C81.1009 11.0479 81.156 11.5101 81.1079 11.9673C81.1516 12.4317 81.0919 12.9 80.9331 13.3386C80.7743 13.7772 80.5203 14.1752 80.1894 14.504C79.8585 14.8327 79.4589 15.0842 79.0193 15.2402C78.5797 15.3962 78.1111 15.4529 77.6469 15.4063H75.9059L75.8989 4.57227ZM76.9089 9.38727V14.6113H77.5539C77.9055 14.6527 78.2618 14.6127 78.5955 14.4946C78.9291 14.3765 79.2312 14.1833 79.4783 13.9299C79.7255 13.6766 79.9112 13.3698 80.0211 13.0334C80.1309 12.6969 80.162 12.3397 80.1119 11.9893C80.1119 10.1623 79.2119 9.38927 77.6609 9.38927H76.9089V9.38727Z" fill="white"/>
<path d="M83.8318 5.41027V15.4103H82.8438V4.57227H87.4218V5.41127H83.8318V5.41027Z" fill="white"/>
<path d="M94.0231 7.86027C94.026 7.36317 94.0541 6.86653 94.1071 6.37226H94.0421C93.886 6.85349 93.692 7.32161 93.4621 7.77227L89.9371 15.4033H89.0771V4.57227H90.0231V12.0963C90.0231 12.6763 89.9791 13.1493 89.9371 13.6223H90.0011C90.1627 13.1301 90.3564 12.649 90.5811 12.1823L94.1071 4.57227H94.9881V15.4063H94.0211V7.86027H94.0231Z" fill="white"/>
</g>
<defs>
<clipPath id="clip0">
<rect width="94.173" height="17.928" fill="white" transform="translate(0.816895 0.0361328)"/>
</clipPath>
</defs>
</svg>
