<svg width="56" height="56" viewBox="0 0 56 56" fill="none" xmlns="http://www.w3.org/2000/svg">
<path d="M52.5 34.2825L44.9925 26.775C44.6646 26.4491 44.2211 26.2661 43.7587 26.2661C43.2964 26.2661 42.8529 26.4491 42.525 26.775L33.25 36.0325L22.2425 25.025C21.9146 24.6991 21.4711 24.5161 21.0088 24.5161C20.5464 24.5161 20.1029 24.6991 19.775 25.025L3.5 41.2825V5.25C3.5 4.78587 3.68437 4.34075 4.01256 4.01256C4.34075 3.68437 4.78587 3.5 5.25 3.5H36.75V0H5.25C3.85761 0 2.52226 0.553123 1.53769 1.53769C0.553123 2.52226 0 3.85761 0 5.25L0 50.75C0 52.1424 0.553123 53.4777 1.53769 54.4623C2.52226 55.4469 3.85761 56 5.25 56H50.75C52.1424 56 53.4777 55.4469 54.4623 54.4623C55.4469 53.4777 56 52.1424 56 50.75V21H52.5V34.2825Z" fill="#D8D8D8"/>
<path d="M17.5 14C17.5 15.3845 17.9105 16.7378 18.6797 17.889C19.4489 19.0401 20.5421 19.9373 21.8212 20.4672C23.1003 20.997 24.5078 21.1356 25.8656 20.8655C27.2235 20.5954 28.4708 19.9287 29.4497 18.9497C30.4287 17.9708 31.0954 16.7235 31.3655 15.3656C31.6356 14.0078 31.497 12.6003 30.9672 11.3212C30.4373 10.0421 29.5401 8.94888 28.389 8.17971C27.2378 7.41054 25.8845 7 24.5 7C22.6435 7 20.863 7.7375 19.5503 9.05025C18.2375 10.363 17.5 12.1435 17.5 14ZM28 14C28 14.6922 27.7947 15.3689 27.4101 15.9445C27.0256 16.5201 26.4789 16.9687 25.8394 17.2336C25.1999 17.4985 24.4961 17.5678 23.8172 17.4327C23.1383 17.2977 22.5146 16.9644 22.0251 16.4749C21.5356 15.9854 21.2023 15.3617 21.0673 14.6828C20.9322 14.0039 21.0015 13.3001 21.2664 12.6606C21.5313 12.0211 21.9799 11.4744 22.5555 11.0899C23.1311 10.7053 23.8078 10.5 24.5 10.5C25.4283 10.5 26.3185 10.8687 26.9749 11.5251C27.6313 12.1815 28 13.0717 28 14Z" fill="#D8D8D8"/>
<path d="M49 7V0H45.5V7H38.5V10.5H45.5V17.5H49V10.5H56V7H49Z" fill="#D8D8D8"/>
</svg>
