<svg width="20" height="20" viewBox="0 0 20 20" fill="none" xmlns="http://www.w3.org/2000/svg">
<path d="M1.30593e-05 7.78099C4.33894e-05 9.25129 0.417133 10.6914 1.20285 11.9342C1.98857 13.1769 3.11069 14.1713 4.43891 14.8018C5.76713 15.4324 7.24696 15.6732 8.70659 15.4964C10.1662 15.3196 11.5458 14.7324 12.685 13.803L18.324 19.442C18.6336 19.7515 19.1357 19.7508 19.4443 19.4402C19.7515 19.1311 19.7507 18.6317 19.4425 18.3235L13.8 12.681C14.5875 11.7155 15.1315 10.5749 15.386 9.3552C15.6406 8.13554 15.5983 6.87256 15.2627 5.67266C14.9271 4.47277 14.3081 3.37109 13.4578 2.46043C12.6074 1.54977 11.5507 0.856804 10.3766 0.439905C9.20244 0.0230064 7.94532 -0.105614 6.71109 0.0648766C5.47687 0.235367 4.3017 0.699976 3.28457 1.41957C2.26744 2.13915 1.43814 3.09265 0.866523 4.19973C0.294911 5.30681 -0.00227033 6.53505 1.30593e-05 7.78099ZM1.55501 7.78099C1.55501 6.55059 1.91987 5.34783 2.60344 4.32479C3.28701 3.30175 4.2586 2.50439 5.39534 2.03354C6.53208 1.56269 7.78291 1.43949 8.98967 1.67953C10.1964 1.91956 11.3049 2.51206 12.1749 3.38208C13.0449 4.2521 13.6374 5.36058 13.8775 6.56733C14.1175 7.77409 13.9943 9.02493 13.5235 10.1617C13.0526 11.2984 12.2553 12.27 11.2322 12.9536C10.2092 13.6371 9.00641 14.002 7.77601 14.002C6.95865 14.0034 6.14905 13.8435 5.39363 13.5314C4.63821 13.2193 3.95183 12.7611 3.37387 12.1831C2.79591 11.6052 2.33773 10.9188 2.02561 10.1634C1.71349 9.40796 1.55356 8.59835 1.55501 7.78099Z" fill="#D8D8D8"/>
</svg>
