<svg width="27" height="24" viewBox="0 0 27 24" fill="none" xmlns="http://www.w3.org/2000/svg">
<path d="M7.59386 11.0134C8.7099 11.1977 8.70989 12.8023 7.59385 12.9866L0.83703 14.1027C0.354186 14.1825 -6.38184e-07 14.6 -6.59576e-07 15.0893L-9.82783e-07 22.4835C-1.01416e-06 23.2014 0.73405 23.6854 1.39392 23.4026L25.8553 12.9191C26.6634 12.5728 26.6634 11.4272 25.8553 11.0809L1.39392 0.597393C0.734053 0.314593 -3.49089e-08 0.798622 -6.629e-08 1.51654L-3.89498e-07 8.91066C-4.10889e-07 9.40005 0.354187 9.81754 0.837032 9.89729L7.59386 11.0134Z" fill="#D8D8D8"/>
</svg>
