<svg width="24" height="19" viewBox="0 0 24 19" fill="none" xmlns="http://www.w3.org/2000/svg">
<path d="M1.09091 5.56555H12.1527C12.4039 6.51811 12.9524 7.35901 13.7134 7.95852C14.4744 8.55804 15.4057 8.88285 16.3636 8.88285C17.3216 8.88285 18.2529 8.55804 19.0139 7.95852C19.7749 7.35901 20.3233 6.51811 20.5745 5.56555H22.9091C23.1984 5.56555 23.4759 5.44712 23.6805 5.2363C23.8851 5.02549 24 4.73956 24 4.44143C24 4.14329 23.8851 3.85736 23.6805 3.64655C23.4759 3.43573 23.1984 3.3173 22.9091 3.3173H20.5745C20.3233 2.36475 19.7749 1.52385 19.0139 0.92433C18.2529 0.324814 17.3216 0 16.3636 0C15.4057 0 14.4744 0.324814 13.7134 0.92433C12.9524 1.52385 12.4039 2.36475 12.1527 3.3173H1.09091C0.801582 3.3173 0.524105 3.43573 0.31952 3.64655C0.114935 3.85736 0 4.14329 0 4.44143C0 4.73956 0.114935 5.02549 0.31952 5.2363C0.524105 5.44712 0.801582 5.56555 1.09091 5.56555ZM16.3636 2.19317C16.7952 2.19317 17.217 2.32503 17.5758 2.57207C17.9346 2.81911 18.2142 3.17024 18.3794 3.58106C18.5445 3.99187 18.5877 4.44392 18.5035 4.88004C18.4193 5.31616 18.2115 5.71676 17.9064 6.03118C17.6013 6.34561 17.2125 6.55973 16.7893 6.64648C16.3661 6.73323 15.9274 6.68871 15.5287 6.51854C15.13 6.34838 14.7893 6.06021 14.5495 5.69049C14.3098 5.32077 14.1818 4.88609 14.1818 4.44143C14.1818 3.84515 14.4117 3.2733 14.8209 2.85167C15.23 2.43004 15.785 2.19317 16.3636 2.19317ZM22.9091 13.4344H11.8473C11.5961 12.4819 11.0476 11.641 10.2866 11.0415C9.52561 10.442 8.59429 10.1171 7.63636 10.1171C6.67843 10.1171 5.74712 10.442 4.98611 11.0415C4.22509 11.641 3.67667 12.4819 3.42546 13.4344H1.09091C0.801582 13.4344 0.524105 13.5529 0.31952 13.7637C0.114935 13.9745 0 14.2604 0 14.5586C0 14.8567 0.114935 15.1426 0.31952 15.3535C0.524105 15.5643 0.801582 15.6827 1.09091 15.6827H3.42546C3.67667 16.6353 4.22509 17.4762 4.98611 18.0757C5.74712 18.6752 6.67843 19 7.63636 19C8.59429 19 9.52561 18.6752 10.2866 18.0757C11.0476 17.4762 11.5961 16.6353 11.8473 15.6827H22.9091C23.1984 15.6827 23.4759 15.5643 23.6805 15.3535C23.8851 15.1426 24 14.8567 24 14.5586C24 14.2604 23.8851 13.9745 23.6805 13.7637C23.4759 13.5529 23.1984 13.4344 22.9091 13.4344ZM7.63636 16.8068C7.20484 16.8068 6.78301 16.675 6.42421 16.4279C6.06541 16.1809 5.78576 15.8298 5.62063 15.4189C5.45549 15.0081 5.41228 14.5561 5.49647 14.12C5.58065 13.6838 5.78845 13.2832 6.09359 12.9688C6.39872 12.6544 6.78748 12.4403 7.21071 12.3535C7.63394 12.2668 8.07263 12.3113 8.47131 12.4815C8.86998 12.6516 9.21074 12.9398 9.45048 13.3095C9.69022 13.6792 9.81818 14.1139 9.81818 14.5586C9.81818 15.1548 9.58831 15.7267 9.17914 16.1483C8.76997 16.57 8.21502 16.8068 7.63636 16.8068Z" fill="#025833"/>
</svg>
