<svg width="299" height="27" viewBox="0 0 299 27" fill="none" xmlns="http://www.w3.org/2000/svg">
<path d="M132.085 27H298.5V0H131.669L124.34 13.4935L132.085 27Z" fill="#AC2DF6"/>
<path d="M0.00846517 13.4695C-0.0435709 14.6111 0.144735 15.751 0.561214 16.8153C0.977692 17.8797 1.61307 18.8449 2.4263 19.6486C3.23952 20.4523 4.21249 21.0765 5.28231 21.4811C6.35214 21.8856 7.49503 22.0614 8.6371 21.997C9.8724 22.0187 11.0989 21.7855 12.2398 21.3119C13.3808 20.8383 14.4116 20.1346 15.2678 19.2448L13.1969 16.3087C12.0507 17.5163 10.4846 18.2389 8.82109 18.3277C5.64623 18.3277 4.17629 15.8202 4.17629 13.3856C4.12927 12.7622 4.21681 12.1359 4.43297 11.5492C4.64914 10.9625 4.98889 10.429 5.42926 9.98479C5.86962 9.54059 6.40033 9.19603 6.9855 8.97443C7.57067 8.75282 8.19664 8.65934 8.82109 8.7003C10.3442 8.77681 11.7961 9.36787 12.9389 10.3766L14.8018 7.34266C13.1244 5.80171 10.9154 4.9687 8.6371 5.01798C7.50584 4.97147 6.37704 5.15696 5.3203 5.56303C4.26356 5.9691 3.30128 6.58713 2.49281 7.37901C1.68434 8.17089 1.0468 9.11984 0.619528 10.1673C0.192252 11.2148 -0.0157104 12.3387 0.00846517 13.4695ZM15.5258 21.7153H19.6676L20.6606 18.2657H25.7964L26.8133 21.7153H30.9562L25.3674 5.28571H21.1266L15.5378 21.7153H15.5258ZM21.6056 15.0479L22.5495 11.8511C22.8435 10.8112 23.2115 9.02497 23.2115 9.02497H23.2605C23.2605 9.02497 23.6285 10.8232 23.9225 11.8511L24.8414 15.0479H21.6076H21.6056ZM31.4841 19.6434C33.0886 21.1701 35.2252 22.0125 37.4409 21.992C41.2407 21.992 43.2876 19.6314 43.2876 16.8661C43.2876 11.6793 36.0069 12.2298 36.0069 9.88112C36.0069 9.22078 36.5339 8.70629 37.7599 8.70629C39.1006 8.76721 40.3822 9.27548 41.3997 10.1498L43.0996 6.85914C41.6627 5.63415 39.8287 4.97333 37.9399 5C34.483 5 31.9831 6.998 31.9831 10.028C31.9831 15.1788 39.2638 14.8112 39.2638 17.1209C39.2638 17.7692 38.6878 18.2707 37.5639 18.2707C36.0916 18.1615 34.6982 17.5637 33.605 16.5724L31.4851 19.6314L31.4841 19.6434ZM45.8485 21.7113H49.8814V15.2807H55.8621V21.7153H59.8949V5.28571H55.8621V11.8551H49.8804V5.28571H45.8485V21.7113ZM63.3388 21.7113H69.3935C72.6664 21.7113 75.6563 20.4026 75.6563 16.8162C75.6977 16.0023 75.4675 15.1976 75.0016 14.5286C74.5357 13.8596 73.8607 13.3641 73.0824 13.1199V13.0709C73.6773 12.7039 74.1664 12.1886 74.5016 11.5755C74.8368 10.9625 75.0066 10.2729 74.9943 9.57442C74.9943 6.74825 72.6944 5.27872 69.4055 5.27872H63.3508V21.7153L63.3388 21.7113ZM67.3706 11.6473V8.72328H69.3705C69.5667 8.69706 69.7663 8.71447 69.955 8.77425C70.1436 8.83403 70.3168 8.93471 70.462 9.06909C70.6072 9.20347 70.7209 9.36823 70.795 9.55161C70.869 9.73498 70.9016 9.93244 70.8905 10.1299C70.9088 10.3275 70.8845 10.5267 70.8194 10.7142C70.7542 10.9017 70.6496 11.0731 70.5126 11.2168C70.3757 11.3606 70.2095 11.4734 70.0252 11.5476C69.841 11.6219 69.643 11.6559 69.4445 11.6473H67.3706ZM67.3706 18.2657V14.8691H69.8055C70.0335 14.8475 70.2635 14.8756 70.4796 14.9515C70.6956 15.0274 70.8926 15.1493 71.0569 15.3087C71.2212 15.4681 71.3489 15.6612 71.4312 15.8748C71.5135 16.0883 71.5484 16.3171 71.5334 16.5455C71.5467 16.7777 71.5102 17.0101 71.4265 17.2272C71.3427 17.4443 71.2136 17.641 71.0477 17.8043C70.8818 17.9676 70.683 18.0936 70.4645 18.174C70.2459 18.2545 70.0128 18.2874 69.7805 18.2707L67.3706 18.2657ZM76.2812 21.7153H80.4241L81.417 18.2657H86.5528L87.5698 21.7153H91.7126L86.1238 5.28571H81.883L76.2942 21.7153H76.2812ZM82.361 15.0479L83.305 11.8511C83.5989 10.8112 83.9669 9.02497 83.9669 9.02497H84.0159C84.0159 9.02497 84.3839 10.8232 84.6779 11.8511L85.5969 15.0479H82.349H82.361ZM92.1176 13.4575C92.0657 14.5991 92.2541 15.7388 92.6706 16.803C93.0872 17.8673 93.7226 18.8323 94.5358 19.6359C95.349 20.4395 96.3219 21.0637 97.3917 21.4682C98.4614 21.8726 99.6042 22.0484 100.746 21.984C101.982 22.0058 103.208 21.7726 104.349 21.299C105.49 20.8254 106.521 20.1217 107.377 19.2318L105.304 16.2927C104.158 17.5003 102.592 18.2229 100.928 18.3117C97.7533 18.3117 96.2834 15.8042 96.2834 13.3696C96.2364 12.7462 96.3239 12.1199 96.5401 11.5332C96.7562 10.9465 97.096 10.413 97.5364 9.96881C97.9767 9.5246 98.5074 9.18004 99.0926 8.95844C99.6778 8.73684 100.304 8.64335 100.928 8.68431C102.451 8.76083 103.903 9.35189 105.046 10.3606L106.909 7.32667C105.231 5.78573 103.022 4.95272 100.744 5.00199C99.6128 4.95547 98.4838 5.14103 97.4269 5.54721C96.37 5.9534 95.4077 6.57161 94.5992 7.36371C93.7907 8.15581 93.1532 9.10499 92.726 10.1527C92.2989 11.2005 92.0911 12.3245 92.1156 13.4555L92.1176 13.4575ZM109.424 21.7033H113.457V15.3536H115.112L118.592 21.7033H123.103L118.403 13.4955V13.4456L122.852 5.27372H118.525L115.119 11.9291H113.464V5.27272H109.431V21.7033H109.424Z" fill="white"/>
<path d="M148.901 21.7153H152.934V16.6384H155.741C158.941 16.6384 161.11 14.2527 161.11 10.9371C161.11 7.62138 158.941 5.28471 155.741 5.28471H148.901V21.7153ZM152.934 13.1888V8.73526H154.981C155.266 8.72148 155.55 8.77041 155.814 8.87858C156.078 8.98674 156.314 9.1515 156.507 9.36119C156.7 9.57088 156.844 9.82037 156.93 10.092C157.016 10.3636 157.041 10.6508 157.003 10.9331C157.041 11.2245 157.014 11.5206 156.924 11.8003C156.834 12.0801 156.683 12.3366 156.482 12.5515C156.282 12.7664 156.037 12.9346 155.764 13.0438C155.49 13.1531 155.197 13.2009 154.903 13.1838H152.917L152.934 13.1888ZM163.389 21.7153H167.422V16.1738H169.308L172.238 21.7153H176.724L173.524 15.965C173.335 15.6229 173.127 15.292 172.899 14.974V14.9251C173.674 14.4675 174.311 13.8106 174.744 13.023C175.178 12.2354 175.391 11.3459 175.363 10.4475C175.431 9.43105 175.173 8.41947 174.626 7.55944C174.079 6.69941 173.273 6.03563 172.323 5.66433C171.292 5.32842 170.205 5.19542 169.123 5.27272H163.388V21.7033L163.389 21.7153ZM167.422 12.7353V8.73926H168.782C169.299 8.71471 169.815 8.79385 170.301 8.97203C171.061 9.26573 171.269 9.88911 171.269 10.7213C171.292 10.999 171.252 11.2782 171.153 11.5387C171.055 11.7992 170.899 12.0346 170.698 12.2278C170.497 12.421 170.256 12.5672 169.992 12.6558C169.727 12.7444 169.446 12.7733 169.169 12.7403L167.422 12.7353ZM177.46 13.3956C177.46 15.6754 178.367 17.8618 179.98 19.4738C181.594 21.0859 183.782 21.9915 186.064 21.9915C188.346 21.9915 190.535 21.0859 192.148 19.4738C193.762 17.8618 194.668 15.6754 194.668 13.3956C194.614 11.1517 193.684 9.01791 192.076 7.45001C190.469 5.88212 188.311 5.00443 186.064 5.00443C183.818 5.00443 181.66 5.88212 180.052 7.45001C178.445 9.01791 177.514 11.1517 177.46 13.3956ZM181.627 13.3956C181.593 12.7908 181.683 12.1855 181.891 11.6166C182.099 11.0478 182.422 10.5273 182.838 10.0872C183.255 9.64705 183.757 9.29643 184.314 9.05682C184.871 8.8172 185.47 8.69361 186.077 8.69361C186.683 8.69361 187.283 8.8172 187.84 9.05682C188.397 9.29643 188.899 9.64705 189.315 10.0872C189.732 10.5273 190.054 11.0478 190.262 11.6166C190.471 12.1855 190.561 12.7908 190.527 13.3956C190.527 16.1928 188.689 18.3137 186.078 18.3137C183.467 18.3137 181.627 16.1978 181.627 13.3956Z" fill="white"/>
<path fill-rule="evenodd" clip-rule="evenodd" d="M140.336 21.7143H135.874L131.167 13.4935L135.629 5.28471H140.091L136.556 11.7932H144.968V15.2188H136.614L140.336 21.7143Z" fill="white"/>
<path d="M210.524 20.216C209.24 20.216 208.076 19.94 207.032 19.388C206 18.824 205.184 18.05 204.584 17.066C203.996 16.07 203.702 14.948 203.702 13.7C203.702 12.452 203.996 11.336 204.584 10.352C205.184 9.356 206 8.582 207.032 8.03C208.076 7.466 209.246 7.184 210.542 7.184C211.634 7.184 212.618 7.376 213.494 7.76C214.382 8.144 215.126 8.696 215.726 9.416L213.854 11.144C213.002 10.16 211.946 9.668 210.686 9.668C209.906 9.668 209.21 9.842 208.598 10.19C207.986 10.526 207.506 11 207.158 11.612C206.822 12.224 206.654 12.92 206.654 13.7C206.654 14.48 206.822 15.176 207.158 15.788C207.506 16.4 207.986 16.88 208.598 17.228C209.21 17.564 209.906 17.732 210.686 17.732C211.946 17.732 213.002 17.234 213.854 16.238L215.726 17.966C215.126 18.698 214.382 19.256 213.494 19.64C212.606 20.024 211.616 20.216 210.524 20.216ZM222.505 14.924H220.489V20H217.591V7.4H220.489V12.494H222.577L225.889 7.4H228.967L224.845 13.484L229.093 20H225.781L222.505 14.924ZM230.459 7.4H233.357V15.608L239.369 7.4H242.105V20H239.225V11.81L233.213 20H230.459V7.4ZM258.15 17.624V22.61H255.45V20H246.558V22.61H243.858L243.876 17.624H244.38C245.136 17.6 245.67 17.048 245.982 15.968C246.294 14.888 246.486 13.346 246.558 11.342L246.702 7.4H256.386V17.624H258.15ZM249.132 11.612C249.072 13.112 248.946 14.372 248.754 15.392C248.562 16.4 248.268 17.144 247.872 17.624H253.506V9.776H249.186L249.132 11.612ZM264.991 14.924H262.975V20H260.077V7.4H262.975V12.494H265.063L268.375 7.4H271.453L267.331 13.484L271.579 20H268.267L264.991 14.924ZM272.945 7.4H275.843V15.608L281.855 7.4H284.591V20H281.711V11.81L275.699 20H272.945V7.4Z" fill="white"/>
</svg>
