<svg width="83" height="22" viewBox="0 0 83 22" fill="none" xmlns="http://www.w3.org/2000/svg">
<path d="M6.31127 22H83V0H5.9723L0 10.9947L6.31127 22Z" fill="url(#paint0_linear)"/>
<path d="M11.5272 16.4722C14.7539 16.4722 17.1446 14.2282 17.1446 11.1629C17.1446 8.09757 14.7539 5.85357 11.5272 5.85357C8.28591 5.85357 5.90991 8.11224 5.90991 11.1629C5.90991 14.2136 8.28591 16.4722 11.5272 16.4722ZM11.5272 14.4482C9.69391 14.4482 8.31525 13.1136 8.31525 11.1629C8.31525 9.21224 9.69391 7.87757 11.5272 7.87757C13.3606 7.87757 14.7392 9.21224 14.7392 11.1629C14.7392 13.1136 13.3606 14.4482 11.5272 14.4482Z" fill="#3A3A3A"/>
<path d="M26.6784 6.02957H17.7757V7.96557H21.0464V16.2962H23.393V7.96557H26.6784V6.02957Z" fill="#3A3A3A"/>
<path d="M34.0076 10.9429C34.9169 10.5469 35.4889 9.7549 35.4889 8.75757C35.4889 6.8949 33.4356 5.80957 31.0596 5.80957C29.8862 5.80957 28.6542 6.07357 27.5396 6.64557L28.2582 8.49357C29.1382 7.9949 30.1502 7.76024 31.0156 7.76024C32.1742 7.76024 33.0836 8.20024 33.0836 9.03624C33.0836 9.7109 32.5262 10.1362 31.5582 10.1362H29.2262V11.9256H31.7342C32.8049 11.9256 33.5089 12.3069 33.5089 13.0842C33.5089 14.0376 32.4089 14.5362 31.0596 14.5362C30.0622 14.5362 28.9182 14.2722 27.9796 13.7002L27.2462 15.4016C28.5222 16.1349 29.9742 16.4722 31.3382 16.4722C33.8022 16.4722 35.9142 15.3576 35.9142 13.4216C35.9142 12.2629 35.1956 11.3536 34.0076 10.9429Z" fill="#3A3A3A"/>
<path d="M42.7672 9.4029H40.1566V6.02957H37.7952V16.2962H42.4299C45.0699 16.2962 46.6539 15.0789 46.6539 12.7176C46.6539 10.5029 45.2459 9.4029 42.7672 9.4029ZM47.9592 16.2962H50.3206V6.02957H47.9592V16.2962ZM42.2979 14.5362H40.1566V11.1629H42.2979C43.5299 11.1629 44.2632 11.6322 44.2632 12.7616C44.2632 13.9202 43.5152 14.5362 42.2979 14.5362Z" fill="#3A3A3A"/>
<path d="M59.9906 10.9429C60.8999 10.5029 61.4426 9.72557 61.4426 8.68424C61.4426 6.9829 60.0346 6.02957 57.6586 6.02957H52.8773V16.2962H57.9373C60.5333 16.2962 61.9266 15.1962 61.9266 13.4069C61.9266 12.1602 61.2373 11.3096 59.9906 10.9429ZM55.2386 7.78957H57.4533C58.4799 7.78957 59.0226 8.22957 59.0226 9.03624C59.0226 9.85757 58.4799 10.2829 57.4533 10.2829H55.2386V7.78957ZM57.8493 14.5362H55.2386V11.9402H57.8493C58.9493 11.9402 59.5213 12.3509 59.5213 13.2162C59.5213 14.1109 58.9493 14.5362 57.8493 14.5362Z" fill="#3A3A3A"/>
<path d="M68.7777 9.4029H66.167V6.02957H63.8057V16.2962H68.4403C71.0803 16.2962 72.6643 15.0789 72.6643 12.7176C72.6643 10.5029 71.2563 9.4029 68.7777 9.4029ZM73.9697 16.2962H76.331V6.02957H73.9697V16.2962ZM68.3083 14.5362H66.167V11.1629H68.3083C69.5403 11.1629 70.2737 11.6322 70.2737 12.7616C70.2737 13.9202 69.5257 14.5362 68.3083 14.5362Z" fill="#3A3A3A"/>
<defs>
<linearGradient id="paint0_linear" x1="-9.8809" y1="-6.72227" x2="66.704" y2="64.0731" gradientUnits="userSpaceOnUse">
<stop stop-color="#4AEFE5"/>
<stop offset="1" stop-color="#CDEA20"/>
</linearGradient>
</defs>
</svg>
