<svg width="28" height="20" viewBox="0 0 28 20" fill="none" xmlns="http://www.w3.org/2000/svg">
<path d="M17.6103 0.00747435C17.7901 0.0325489 17.9591 0.108417 18.0973 0.22617L27.6404 8.17873C27.747 8.26832 27.8327 8.38015 27.8915 8.50637C27.9503 8.63259 27.9808 8.77013 27.9808 8.90938C27.9808 9.04862 27.9503 9.18616 27.8915 9.31238C27.8327 9.4386 27.747 9.55043 27.6404 9.64002L18.0973 17.5926C17.9584 17.7069 17.79 17.7796 17.6115 17.8023C17.433 17.825 17.2518 17.7968 17.0886 17.7209C16.9255 17.6451 16.7871 17.5247 16.6894 17.3736C16.5918 17.2224 16.5388 17.0468 16.5367 16.8669V13.6958C14.385 13.7162 6.98439 14.1257 1.57592 18.855C1.41831 18.9903 1.2209 19.0704 1.01363 19.0833C0.806352 19.0962 0.600531 19.0411 0.42739 18.9264C0.254249 18.8118 0.123237 18.6438 0.0542301 18.4479C-0.0147766 18.252 -0.0180118 18.039 0.0450155 17.8411C2.71743 9.60756 10.7497 5.96284 16.5367 4.38138V0.961782C16.5356 0.825764 16.5636 0.691093 16.6189 0.566794C16.6741 0.442495 16.7553 0.331429 16.857 0.241062C16.9586 0.150694 17.0784 0.0831179 17.2084 0.0428299C17.3383 0.00254188 17.4753 -0.00951714 17.6103 0.00747435ZM18.4453 2.98969V5.09712C18.4454 5.30876 18.3751 5.51442 18.2455 5.68177C18.116 5.84912 17.9345 5.96867 17.7295 6.0216C13.0535 7.20536 6.71553 9.85568 3.37517 15.2466C9.76626 11.4917 16.9344 11.7488 17.5407 11.7773C17.785 11.79 18.0152 11.8962 18.1835 12.0738C18.3519 12.2514 18.4456 12.4869 18.4453 12.7316V14.8291L25.5529 8.91435L18.4453 2.98969Z" fill="#5A5A5A"/>
</svg>
