<svg width="59" height="40" viewBox="0 0 59 40" fill="none" xmlns="http://www.w3.org/2000/svg">
<path d="M48.2792 37.5186C47.3833 39.0551 45.7385 40 43.9599 40H5C2.23858 40 0 37.7614 0 35V5C0 2.23858 2.23857 0 5 0L44.5086 0C46.3289 0 48.0053 0.989233 48.8854 2.58262L58.5 19.9904L48.2792 37.5186Z" fill="#F72A4F"/>
<path fill-rule="evenodd" clip-rule="evenodd" d="M17.8166 16.8892C18.3704 19.2626 19.3198 21.0822 21.1394 21.3986C17.4211 15.9398 25.728 11.6677 25.0159 7C32.057 11.905 30.1583 16.0189 29.5254 18.7088C28.6551 22.0315 32.769 22.9018 32.057 17.6803C34.6677 20.7657 34.6677 24.484 33.1646 27.4112C29.921 33.582 20.3483 33.5029 17.0255 27.3321C15.4432 24.4049 15.6806 20.4492 17.8166 16.8892Z" fill="white"/>
</svg>
