<svg width="59" height="78" viewBox="0 0 59 78" fill="none" xmlns="http://www.w3.org/2000/svg">
<path d="M39.0679 21.9082L39.9348 15.7334L42.1751 16.048L41.3081 22.2227L39.0679 21.9082Z" fill="#FB963F"/>
<path d="M16.8154 16.0165L19.0557 15.7019L19.9843 22.3154L17.744 22.6299L16.8154 16.0165Z" fill="#FB963F"/>
<path d="M58.5056 48.2481C58.5056 56.2452 55.25 63.4955 49.9925 68.7454C44.7396 73.9923 37.4908 77.2403 29.4952 77.2403C28.9385 77.2403 28.3864 77.2252 27.8373 77.1936C20.501 76.7787 13.8857 73.6272 8.99789 68.7454C3.74042 63.4955 0.484863 56.2452 0.484863 48.2481C0.484863 40.2555 3.73891 33.0082 8.99185 27.7583C13.8797 22.8734 20.4964 19.719 27.8373 19.3041C28.3864 19.2724 28.9385 19.2573 29.4952 19.2573C37.4938 19.2573 44.7457 22.5084 49.9986 27.7583C55.2515 33.0082 58.5056 40.2555 58.5056 48.2481Z" fill="#FFE8A7"/>
<path d="M49.9989 27.7583L48.2836 29.4736L29.5031 48.2556L29.4956 48.2616L8.99219 27.7583C13.88 22.8734 20.4968 19.719 27.8376 19.3041C28.3867 19.2724 28.9389 19.2573 29.4956 19.2573C37.4941 19.2573 44.746 22.5084 49.9989 27.7583Z" fill="#FFE26F"/>
<path d="M49.9927 68.7454C44.7398 73.9923 37.491 77.2403 29.4954 77.2403C28.9387 77.2403 28.3866 77.2252 27.8374 77.1935C20.5011 76.7787 13.8859 73.6272 8.99805 68.7454L29.4893 48.2556L29.4954 48.248L49.9927 68.7454Z" fill="#FFE26F"/>
<path d="M58.5057 48.2481C58.5057 56.2452 55.2502 63.4955 49.9927 68.7454C44.7397 73.9923 37.4909 77.2403 29.4954 77.2403C28.9387 77.2403 28.3865 77.2252 27.8374 77.1936C43.0863 76.3337 55.1868 63.7037 55.1868 48.2481C55.1868 32.794 43.0863 20.164 27.8374 19.3041C28.3865 19.2724 28.9387 19.2573 29.4954 19.2573C37.4939 19.2573 44.7458 22.5084 49.9987 27.7583C55.2517 33.0082 58.5057 40.2555 58.5057 48.2481Z" fill="#FFE26F"/>
<path d="M48.2774 67.03L49.9927 68.7453C44.7397 73.9922 37.4909 77.2402 29.4954 77.2402C28.9387 77.2402 28.3865 77.2251 27.8374 77.1935C36.017 76.7318 43.29 72.8834 48.2774 67.03Z" fill="#FFC54B"/>
<path d="M27.8374 19.3041C28.3865 19.2724 28.9387 19.2573 29.4954 19.2573C37.4939 19.2573 44.7458 22.5084 49.9987 27.7583L48.2834 29.4736C43.296 23.6157 36.02 19.7657 27.8374 19.3041Z" fill="#FFC54B"/>
<path d="M58.8269 1.23554L46.8441 15.8705H22.7065L35.4753 0.277582C35.6186 0.101076 35.8329 0 36.0607 0H58.2431C58.8812 0 59.2312 0.742231 58.8269 1.23554Z" fill="#F55C80"/>
<path d="M58.827 1.23554L46.8442 15.8705H42.2988L55.2683 0H58.2432C58.8813 0 59.2313 0.742231 58.827 1.23554Z" fill="#CC5466"/>
<path d="M55.2684 0L42.2718 15.8705H39.3481L52.3417 0H55.2684Z" fill="#FDB8B5"/>
<path d="M43.1996 0L30.203 15.8705H27.2778L40.2744 0H43.1996Z" fill="#FDB8B5"/>
<path d="M51.6535 48.248C51.6535 60.4782 41.733 70.3912 29.4952 70.3912C28.9883 70.3912 28.4845 70.3746 27.9866 70.3399C16.4519 69.566 7.33691 59.9713 7.33691 48.248C7.33691 36.5261 16.4519 26.9299 27.9866 26.156C28.4845 26.1213 28.9883 26.1047 29.4952 26.1047C41.733 26.1047 51.6535 36.0193 51.6535 48.248Z" fill="#FFC54B"/>
<path d="M51.6537 48.248C51.6537 60.4782 41.7332 70.3912 29.4954 70.3912C28.9885 70.3912 28.4847 70.3746 27.9868 70.3399C39.5216 69.566 48.6365 59.9713 48.6365 48.248C48.6365 36.5261 39.5216 26.9299 27.9868 26.156C28.4847 26.1213 28.9885 26.1047 29.4954 26.1047C41.7332 26.1047 51.6537 36.0193 51.6537 48.248Z" fill="#FEAC38"/>
<path d="M29.4953 37.7334C28.2456 37.7334 27.2324 38.746 27.2324 39.9948V56.5023C27.2324 57.7513 28.2456 58.7637 29.4953 58.7637C30.745 58.7637 31.7582 57.7512 31.7582 56.5023V39.9948C31.7582 38.746 30.745 37.7334 29.4953 37.7334Z" fill="#FFE8A7"/>
<path d="M36.2842 15.8705H12.1466L8.72809 11.6962L0.17433 1.25063C-0.2345 0.749774 0.121529 0 0.76721 0H22.8984C23.1458 0 23.3796 0.110128 23.5365 0.30172L36.2842 15.8705Z" fill="#F55C80"/>
<path d="M36.2841 15.8705H12.1465L8.72803 11.6962H22.0671C24.6347 11.6962 26.0467 8.71216 24.4205 6.72533L18.9126 0H22.8983C23.1457 0 23.3795 0.110128 23.5364 0.30172L36.2841 15.8705Z" fill="#CC5466"/>
<path d="M19.6444 15.8705H16.7192L13.3007 11.6962L3.72412 0H6.64779L16.2259 11.6962L19.6444 15.8705Z" fill="#FDB8B5"/>
<path d="M31.9105 15.8705H28.9838L24.5335 10.435L15.9888 0H18.9124L24.4203 6.72533L31.9105 15.8705Z" fill="#FDB8B5"/>
<path d="M16.226 11.6962L19.6444 15.8705H16.7193L13.3008 11.6962H16.226Z" fill="#FB9E9E"/>
<path d="M31.9111 15.8705H28.9844L24.534 10.435C25.2838 9.38802 25.3713 7.88696 24.4209 6.72534L31.9111 15.8705Z" fill="#FB9E9E"/>
<path d="M40.856 32.8479C40.3531 32.477 39.6448 32.5836 39.2738 33.0865C38.9028 33.5893 39.0097 34.2977 39.5123 34.6687C40.9085 35.6991 42.1343 36.9329 43.1559 38.3364C43.3773 38.6407 43.7221 38.8021 44.0716 38.8021C44.3024 38.8021 44.5355 38.7316 44.7364 38.5853C45.2417 38.2175 45.3532 37.5098 44.9854 37.0046C43.8277 35.4142 42.4384 34.0158 40.856 32.8479Z" fill="#FFE26F"/>
<path d="M18.3571 32.686C16.6828 33.8849 15.2187 35.338 14.0054 37.0047C13.6376 37.5099 13.749 38.2176 14.2543 38.5854C14.4552 38.7317 14.6881 38.8021 14.9191 38.8021C15.2687 38.8021 15.6134 38.6407 15.8348 38.3364C16.9055 36.8656 18.1973 35.5835 19.6745 34.5257C20.1826 34.162 20.2995 33.4552 19.9357 32.9471C19.5721 32.439 18.8653 32.322 18.3571 32.686Z" fill="#FFE26F"/>
<path d="M44.7367 57.9106C44.2313 57.5428 43.5238 57.6544 43.156 58.1595C42.1345 59.563 40.9086 60.7968 39.5124 61.8272C39.0096 62.1982 38.9028 62.9066 39.2739 63.4094C39.4958 63.7101 39.8381 63.8691 40.1853 63.8691C40.4186 63.8691 40.654 63.7971 40.8563 63.6479C42.4387 62.4803 43.8279 61.0817 44.9858 59.4911C45.3534 58.9861 45.2419 58.2784 44.7367 57.9106Z" fill="#FFE26F"/>
<path d="M19.6745 61.9702C18.1973 60.9124 16.9055 59.6304 15.8348 58.1595C15.4672 57.6546 14.7597 57.5426 14.2543 57.9107C13.749 58.2785 13.6376 58.9861 14.0054 59.4913C15.2186 61.1581 16.6828 62.6112 18.3571 63.8101C18.5566 63.953 18.7869 64.0218 19.0148 64.0218C19.3674 64.0218 19.7148 63.8575 19.9357 63.549C20.2994 63.0407 20.1825 62.3339 19.6745 61.9702Z" fill="#FFE26F"/>
<path d="M29.4957 31.3784C30.1206 31.3784 30.6272 30.8718 30.6272 30.2469C30.6272 29.622 30.1206 29.1155 29.4957 29.1155C28.8708 29.1155 28.3643 29.622 28.3643 30.2469C28.3643 30.8718 28.8708 31.3784 29.4957 31.3784Z" fill="#FFE26F"/>
<path d="M23.3346 32.4639C23.9595 32.4639 24.466 31.9574 24.466 31.3325C24.466 30.7076 23.9595 30.201 23.3346 30.201C22.7097 30.201 22.2031 30.7076 22.2031 31.3325C22.2031 31.9574 22.7097 32.4639 23.3346 32.4639Z" fill="#FFE26F"/>
<path d="M35.6564 32.4638C36.2812 32.4638 36.7878 31.9573 36.7878 31.3324C36.7878 30.7075 36.2812 30.2009 35.6564 30.2009C35.0315 30.2009 34.5249 30.7075 34.5249 31.3324C34.5249 31.9573 35.0315 32.4638 35.6564 32.4638Z" fill="#FFE26F"/>
<path d="M29.4957 67.3805C30.1206 67.3805 30.6272 66.8739 30.6272 66.249C30.6272 65.6241 30.1206 65.1176 29.4957 65.1176C28.8708 65.1176 28.3643 65.6241 28.3643 66.249C28.3643 66.8739 28.8708 67.3805 29.4957 67.3805Z" fill="#FFE26F"/>
<path d="M23.3346 66.2949C23.9595 66.2949 24.466 65.7883 24.466 65.1634C24.466 64.5385 23.9595 64.032 23.3346 64.032C22.7097 64.032 22.2031 64.5385 22.2031 65.1634C22.2031 65.7883 22.7097 66.2949 23.3346 66.2949Z" fill="#FFE26F"/>
<path d="M35.6564 66.295C36.2812 66.295 36.7878 65.7884 36.7878 65.1636C36.7878 64.5387 36.2812 64.0321 35.6564 64.0321C35.0315 64.0321 34.5249 64.5387 34.5249 65.1636C34.5249 65.7884 35.0315 66.295 35.6564 66.295Z" fill="#FFE26F"/>
<path d="M47.5079 49.3798C48.1328 49.3798 48.6394 48.8733 48.6394 48.2484C48.6394 47.6235 48.1328 47.1169 47.5079 47.1169C46.883 47.1169 46.3765 47.6235 46.3765 48.2484C46.3765 48.8733 46.883 49.3798 47.5079 49.3798Z" fill="#FFE26F"/>
<path d="M46.4225 43.2187C47.0473 43.2187 47.5539 42.7121 47.5539 42.0873C47.5539 41.4624 47.0473 40.9558 46.4225 40.9558C45.7976 40.9558 45.291 41.4624 45.291 42.0873C45.291 42.7121 45.7976 43.2187 46.4225 43.2187Z" fill="#FFE26F"/>
<path d="M46.4225 55.541C47.0473 55.541 47.5539 55.0344 47.5539 54.4095C47.5539 53.7846 47.0473 53.2781 46.4225 53.2781C45.7976 53.2781 45.291 53.7846 45.291 54.4095C45.291 55.0344 45.7976 55.541 46.4225 55.541Z" fill="#FFE26F"/>
<path d="M11.506 49.3798C12.1308 49.3798 12.6374 48.8733 12.6374 48.2484C12.6374 47.6235 12.1308 47.1169 11.506 47.1169C10.8811 47.1169 10.3745 47.6235 10.3745 48.2484C10.3745 48.8733 10.8811 49.3798 11.506 49.3798Z" fill="#FFE26F"/>
<path d="M12.5914 43.2187C13.2163 43.2187 13.7229 42.7121 13.7229 42.0873C13.7229 41.4624 13.2163 40.9558 12.5914 40.9558C11.9665 40.9558 11.46 41.4624 11.46 42.0873C11.46 42.7121 11.9665 43.2187 12.5914 43.2187Z" fill="#FFE26F"/>
<path d="M12.5914 55.541C13.2163 55.541 13.7229 55.0344 13.7229 54.4095C13.7229 53.7846 13.2163 53.2781 12.5914 53.2781C11.9665 53.2781 11.46 53.7846 11.46 54.4095C11.46 55.0344 11.9665 55.541 12.5914 55.541Z" fill="#FFE26F"/>
<path d="M49.8617 14.7385H9.1295C8.50463 14.7385 7.99805 15.2451 7.99805 15.87C7.99805 16.4948 8.50463 17.0014 9.1295 17.0014H49.8617C50.4865 17.0014 50.9931 16.4948 50.9931 15.87C50.9931 15.2451 50.4865 14.7385 49.8617 14.7385Z" fill="#FEAC38"/>
</svg>
