<svg width="31" height="21" viewBox="0 0 31 21" fill="none" xmlns="http://www.w3.org/2000/svg">
<path d="M29.5636 11.2406C29.5636 12.8298 29.5636 14.4191 29.5636 16.0083C29.5636 16.0954 29.5649 16.1824 29.5604 16.2694C29.552 16.4303 29.5912 16.1072 29.561 16.2637C29.5499 16.3216 29.5319 16.378 29.5129 16.4339C29.4629 16.5815 29.5842 16.2896 29.5152 16.4288C29.4894 16.4807 29.4578 16.5296 29.4254 16.5777C29.3394 16.7059 29.531 16.4572 29.4289 16.5735C29.3907 16.617 29.3476 16.6563 29.3041 16.6947C29.1876 16.7975 29.4379 16.6038 29.3087 16.6915C29.2601 16.7245 29.2078 16.7521 29.1553 16.7787C29.0142 16.8503 29.311 16.7233 29.1607 16.7767C29.118 16.7919 29.074 16.8028 29.03 16.8138C28.9847 16.8252 28.827 16.8433 29.0379 16.819C28.9907 16.8245 28.9425 16.826 28.895 16.826C28.8051 16.826 28.7152 16.826 28.6253 16.826C28.3929 16.826 28.1605 16.826 27.9282 16.826C28.1663 17.0568 28.4043 17.2876 28.6424 17.5185C28.6217 16.7402 28.3052 16.0057 27.7377 15.4531C27.1746 14.9048 26.3881 14.6071 25.595 14.5994C24.7969 14.5916 24.0219 14.919 23.4523 15.4531C22.8786 15.9911 22.5681 16.7513 22.5477 17.5185C22.7857 17.2876 23.0238 17.0568 23.2618 16.826C22.4775 16.826 21.6932 16.826 20.9089 16.826C21.147 17.0568 21.385 17.2876 21.6231 17.5185C21.6231 16.3102 21.6231 15.1019 21.6231 13.8936C21.6231 11.808 21.6231 9.72239 21.6231 7.63676C21.6231 6.8855 21.6231 6.13428 21.6231 5.38302C21.385 5.61386 21.147 5.8447 20.9089 6.07554C22.5923 6.07554 24.2757 6.07554 25.9591 6.07554C26.2043 6.07554 26.4532 6.06581 26.6977 6.08771C26.8684 6.10298 26.5317 6.06116 26.699 6.08972C26.7459 6.09774 26.7922 6.10852 26.8385 6.1193C26.9298 6.14057 27.0189 6.16996 27.1067 6.20188C26.9033 6.12788 27.1775 6.23849 27.2288 6.26566C27.2691 6.28703 27.308 6.31077 27.3469 6.33445C27.3843 6.3572 27.5565 6.48166 27.3886 6.35526C27.461 6.4097 27.5282 6.47028 27.5934 6.53254C27.6324 6.56974 27.8249 6.79379 27.6925 6.62762C27.7491 6.69872 27.7993 6.77443 27.8471 6.85127C27.8712 6.89002 27.893 6.93005 27.9147 6.97006C27.9354 7.00795 28.0215 7.20275 27.9405 7.01204C28.2259 7.68395 28.4537 8.38426 28.7087 9.06732C29.0022 9.85311 29.2956 10.6389 29.589 11.4247C29.7214 11.7793 30.0698 12.0145 30.4675 11.9084C30.8205 11.8142 31.099 11.4117 30.9663 11.0565C30.4356 9.635 29.9047 8.21354 29.374 6.79204C29.0994 6.05658 28.6282 5.42975 27.9094 5.0483C27.4112 4.78395 26.8635 4.69049 26.3023 4.69049C25.4113 4.69049 24.5203 4.69049 23.6293 4.69049C22.7225 4.69049 21.8157 4.69049 20.909 4.69049C20.5197 4.69049 20.1948 5.00549 20.1948 5.38302C20.1948 6.59131 20.1948 7.79957 20.1948 9.00783C20.1948 11.0935 20.1948 13.1791 20.1948 15.2647C20.1948 16.0159 20.1948 16.7672 20.1948 17.5185C20.1948 17.8959 20.5197 18.211 20.909 18.211C21.6933 18.211 22.4776 18.211 23.2619 18.211C23.6588 18.211 23.966 17.8957 23.9761 17.5185C23.9777 17.4572 23.9812 17.3964 23.9866 17.3354C23.9954 17.2587 23.9928 17.2751 23.9787 17.3849C23.9854 17.3406 23.9948 17.2967 24.0042 17.2529C24.0167 17.195 24.0333 17.138 24.0503 17.0813C24.0645 17.0343 24.16 16.7993 24.0721 16.9999C24.1246 16.8801 24.1913 16.7665 24.2642 16.6574C24.2805 16.6334 24.2974 16.6097 24.3146 16.5863C24.406 16.4603 24.211 16.7093 24.3119 16.5905C24.3589 16.5351 24.4102 16.4833 24.4624 16.4325C24.5041 16.3918 24.5486 16.3539 24.5934 16.3164C24.652 16.27 24.6385 16.2792 24.5529 16.3441C24.5882 16.3178 24.625 16.2935 24.6617 16.2692C24.7726 16.1959 24.8919 16.1352 25.014 16.0816C24.8156 16.1688 25.0092 16.0877 25.0541 16.0728C25.1261 16.049 25.2 16.0308 25.274 16.014C25.304 16.0075 25.3342 16.0016 25.3644 15.9963C25.5271 15.9659 25.1929 16.0136 25.3587 15.9958C25.4372 15.9874 25.5162 15.9851 25.5951 15.9843C25.6583 15.9837 25.7216 15.9874 25.7846 15.9917C25.8158 15.9941 25.8469 15.9972 25.8779 16.0008C25.6659 15.9781 25.826 15.9963 25.8711 16.0047C26.0054 16.0298 26.1362 16.0701 26.2637 16.1176C26.0611 16.0421 26.255 16.117 26.2977 16.1377C26.3642 16.17 26.4281 16.2072 26.4912 16.2456C26.5339 16.2716 26.7352 16.4226 26.5627 16.2889C26.6204 16.3336 26.6746 16.3826 26.7278 16.4324C26.7703 16.4723 26.8101 16.5149 26.8493 16.5577C26.8688 16.5794 26.8878 16.6013 26.9064 16.6237C26.7773 16.4716 26.8758 16.5867 26.9011 16.6216C26.9783 16.728 27.0426 16.8426 27.0997 16.9601C27.1308 17.028 27.1244 17.013 27.0805 16.9152C27.0915 16.9424 27.1019 16.9698 27.1118 16.9975C27.1374 17.0669 27.1573 17.1381 27.1757 17.2095C27.1885 17.2589 27.2277 17.5131 27.1986 17.2902C27.2085 17.3659 27.2121 17.4422 27.2141 17.5184C27.2241 17.8957 27.5314 18.2109 27.9283 18.2109C28.4048 18.2109 28.8945 18.2445 29.3651 18.159C30.3094 17.9874 30.9919 17.0822 30.9919 16.175C30.9919 15.457 30.9919 14.7389 30.9919 14.021C30.9919 13.0942 30.9919 12.1673 30.9919 11.2405C30.9919 10.863 30.667 10.548 30.2777 10.548C29.8884 10.548 29.5636 10.8631 29.5636 11.2406Z" fill="#A8A8A8"/>
<path d="M20.1948 2.53357C20.1948 3.57032 20.1948 4.60706 20.1948 5.64377C20.1948 7.74622 20.1948 9.84869 20.1948 11.9511C20.1948 13.6077 20.1948 15.2642 20.1948 16.9207C20.1948 17.12 20.1948 17.3192 20.1948 17.5185C20.4329 17.2876 20.671 17.0568 20.909 16.826C19.6263 16.826 18.3436 16.826 17.0609 16.826C14.9462 16.826 12.8315 16.826 10.7167 16.826C10.1274 16.826 9.53816 16.826 8.94887 16.826C9.18693 17.0568 9.42498 17.2876 9.66304 17.5185C9.64233 16.7402 9.32585 16.0057 8.75836 15.4531C8.19526 14.9048 7.4088 14.6071 6.61567 14.5994C5.81754 14.5916 5.04253 14.919 4.47297 15.4531C3.89926 15.9911 3.58873 16.7513 3.5683 17.5185C3.80635 17.2876 4.0444 17.0568 4.28246 16.826C3.90225 16.826 3.52208 16.826 3.14187 16.826C2.75122 16.826 2.35085 16.851 1.96102 16.819C2.16765 16.836 2.01781 16.8243 1.96884 16.8138C1.92446 16.8043 1.88117 16.7904 1.83808 16.7767C1.68589 16.7281 1.98683 16.8458 1.84332 16.7787C1.80315 16.76 1.765 16.7375 1.72694 16.715C1.68896 16.6926 1.56911 16.5996 1.72783 16.7226C1.69324 16.6958 1.66138 16.6659 1.62965 16.636C1.59785 16.6062 1.56908 16.5735 1.54038 16.5408C1.67668 16.6959 1.55156 16.5471 1.52507 16.5048C1.50188 16.4678 1.48246 16.4287 1.46308 16.3897C1.55051 16.5657 1.48552 16.4367 1.47042 16.3922C1.45614 16.3502 1.44624 16.3069 1.43635 16.2637C1.40074 16.1082 1.45094 16.4299 1.43696 16.2694C1.43393 16.2347 1.43376 16.1998 1.43376 16.1649C1.43376 16.0461 1.43376 15.9273 1.43376 15.8085C1.43376 14.1967 1.43376 12.5849 1.43376 10.9731C1.43376 8.91006 1.43376 6.84705 1.43376 4.78402C1.43376 4.15303 1.43376 3.522 1.43376 2.89105C1.43376 2.77536 1.43376 2.65971 1.43376 2.54406C1.43376 2.50993 1.43519 2.47586 1.43696 2.44176C1.44539 2.28083 1.40615 2.60391 1.43635 2.44743C1.44475 2.4039 1.4576 2.36136 1.47042 2.31892C1.48314 2.27684 1.54639 2.13877 1.46308 2.32139C1.48715 2.2686 1.51732 2.2187 1.54816 2.16947C1.57125 2.13263 1.66716 2.01642 1.54038 2.17032C1.56802 2.13679 1.59887 2.10589 1.62965 2.07509C1.66046 2.04425 1.69419 2.01635 1.72783 1.98852C1.57649 2.1136 1.68732 2.02113 1.72694 1.99607C1.76428 1.97243 1.80387 1.95238 1.84332 1.93239C1.98455 1.86083 1.68766 1.98783 1.83808 1.9344C1.88076 1.91927 1.92487 1.90825 1.96884 1.89727C1.99863 1.89035 2.02863 1.88438 2.05882 1.8794C1.94534 1.89252 1.9283 1.89546 2.00771 1.8882C2.29491 1.86466 2.59156 1.8851 2.87916 1.8851C3.57707 1.8851 4.27494 1.8851 4.97285 1.8851C7.07283 1.8851 9.17285 1.8851 11.2729 1.8851C13.2901 1.8851 15.3074 1.8851 17.3246 1.8851C17.919 1.8851 18.5135 1.8851 19.1079 1.8851C19.2346 1.8851 19.3612 1.8851 19.4878 1.8851C19.5649 1.8851 19.776 1.90997 19.5696 1.8794C19.6598 1.89275 19.7474 1.9191 19.8328 1.94944C19.644 1.8824 19.7821 1.93081 19.8247 1.95244C19.8642 1.97243 19.9016 1.99607 19.9388 2.01962C20.071 2.10325 19.8145 1.91726 19.9344 2.01635C19.9681 2.04422 19.9989 2.07509 20.0297 2.10589C20.0606 2.13682 20.1523 2.2558 20.0307 2.0981C20.0662 2.14417 20.0963 2.1939 20.1254 2.24393C20.1475 2.28205 20.2054 2.42105 20.1285 2.23615C20.1454 2.27687 20.1582 2.31912 20.1709 2.3612C20.1838 2.40387 20.1923 2.44767 20.2007 2.49133C20.1602 2.28149 20.1939 2.48094 20.1948 2.53357C20.2014 2.91097 20.5147 3.2261 20.909 3.2261C21.2934 3.2261 21.6297 2.9111 21.6232 2.53357C21.6047 1.46955 20.7906 0.636115 19.7138 0.512318C19.5911 0.498204 19.4696 0.500083 19.3466 0.500083C18.8579 0.500083 18.3692 0.500083 17.8805 0.500083C15.9598 0.500083 14.0391 0.500083 12.1184 0.500083C9.96166 0.500083 7.80495 0.500083 5.64825 0.500083C4.48157 0.500083 3.3149 0.500083 2.14827 0.500083C0.946566 0.500083 0.00546748 1.42744 0.00546748 2.58835C0.00546748 3.0347 0.00546748 3.48101 0.00546748 3.92736C0.00546748 5.87402 0.00546748 7.82071 0.00546748 9.76737C0.00546748 11.6001 0.00546748 13.4328 0.00546748 15.2655C0.00546748 15.5992 -0.00874778 15.9361 0.00866422 16.2694C0.0352923 16.7787 0.254813 17.2502 0.619682 17.6154C0.988735 17.9848 1.48902 18.1654 2.00778 18.2079C2.39237 18.2395 2.79016 18.211 3.17561 18.211C3.54459 18.211 3.91354 18.211 4.28249 18.211C4.6794 18.211 4.98662 17.8958 4.99666 17.5185C4.99829 17.4573 5.00176 17.3965 5.0072 17.3355C5.01601 17.2587 5.01335 17.2752 4.99924 17.385C5.00594 17.3406 5.01539 17.2967 5.02481 17.253C5.03726 17.195 5.05382 17.1381 5.07093 17.0813C5.08508 17.0344 5.18057 16.7994 5.09269 17C5.1452 16.8801 5.21186 16.7666 5.28474 16.6574C5.30109 16.6334 5.31793 16.6098 5.33524 16.5864C5.42662 16.4604 5.23168 16.7094 5.33252 16.5905C5.37955 16.5351 5.4308 16.4833 5.48293 16.4325C5.5247 16.3919 5.56914 16.354 5.61393 16.3165C5.67253 16.2701 5.65903 16.2793 5.57346 16.3442C5.60873 16.3179 5.64552 16.2936 5.68225 16.2693C5.79319 16.196 5.91245 16.1353 6.03454 16.0816C5.83617 16.1688 6.02978 16.0877 6.07464 16.0729C6.1467 16.0491 6.22053 16.0309 6.2946 16.0141C6.32459 16.0076 6.35469 16.0017 6.38492 15.9964C6.54772 15.966 6.21346 16.0137 6.37931 15.9959C6.45777 15.9874 6.53677 15.9852 6.61563 15.9844C6.67889 15.9838 6.74211 15.9875 6.80519 15.9918C6.83634 15.9942 6.86743 15.9972 6.89844 16.0009C6.6865 15.9781 6.84658 15.9963 6.89167 16.0048C7.02597 16.0298 7.15676 16.0702 7.28423 16.1177C7.08167 16.0422 7.27555 16.117 7.31823 16.1378C7.38482 16.1701 7.44872 16.2073 7.51174 16.2456C7.55452 16.2716 7.75578 16.4226 7.58319 16.289C7.641 16.3337 7.69518 16.3827 7.74833 16.4325C7.79084 16.4724 7.83059 16.515 7.86991 16.5578C7.88936 16.5794 7.90837 16.6014 7.92697 16.6237C7.79785 16.4717 7.89637 16.5868 7.92163 16.6217C7.9988 16.7281 8.06311 16.8426 8.12024 16.9601C8.15139 17.0281 8.145 17.0131 8.10106 16.9153C8.11204 16.9425 8.12245 16.9699 8.13235 16.9975C8.15792 17.0669 8.17781 17.1381 8.19625 17.2095C8.209 17.259 8.24828 17.5132 8.21917 17.2903C8.22906 17.366 8.23263 17.4423 8.23468 17.5185C8.24471 17.8958 8.55193 18.211 8.94884 18.211C10.2315 18.211 11.5143 18.211 12.7969 18.211C14.9117 18.211 17.0264 18.211 19.1411 18.211C19.7304 18.211 20.3197 18.211 20.909 18.211C21.2983 18.211 21.6231 17.896 21.6231 17.5185C21.6231 16.4817 21.6231 15.445 21.6231 14.4083C21.6231 12.3058 21.6231 10.2034 21.6231 8.10092C21.6231 6.4444 21.6231 4.78788 21.6231 3.13139C21.6231 2.93214 21.6231 2.73285 21.6231 2.5336C21.6231 2.15611 21.2983 1.84108 20.909 1.84108C20.5197 1.84108 20.1948 2.15608 20.1948 2.53357Z" fill="#A8A8A8"/>
<path d="M27.2142 17.5547C27.2133 17.6463 27.2077 17.7371 27.1973 17.8282C27.2228 17.6044 27.177 17.8946 27.1623 17.9508C27.14 18.036 27.11 18.119 27.0776 18.201C27.1513 18.0147 27.0966 18.1555 27.0773 18.1948C27.0518 18.2469 27.0227 18.2973 26.9931 18.3473C26.9489 18.4221 26.8982 18.493 26.8456 18.5623C26.977 18.3892 26.7949 18.6102 26.7555 18.6499C26.6941 18.7117 26.6274 18.7684 26.5592 18.8231C26.7159 18.6974 26.5981 18.7932 26.562 18.818C26.5136 18.8512 26.463 18.8812 26.4122 18.9107C26.3355 18.9552 26.255 18.9932 26.1736 19.0289C26.3784 18.9392 26.1029 19.0471 26.0473 19.063C25.9593 19.0883 25.8693 19.1059 25.7789 19.1209C25.9891 19.086 25.8303 19.1137 25.7839 19.1178C25.721 19.1233 25.6579 19.1245 25.5948 19.1251C25.5006 19.126 25.4064 19.1188 25.3128 19.1087C25.5435 19.1334 25.2443 19.089 25.1863 19.0748C25.0985 19.0531 25.0128 19.024 24.9283 18.9926C25.1204 19.0641 24.9753 19.011 24.9347 18.9924C24.881 18.9676 24.8291 18.9394 24.7774 18.9107C24.7003 18.8679 24.6272 18.8187 24.5557 18.7677C24.7343 18.8951 24.5064 18.7185 24.4654 18.6803C24.4017 18.6207 24.3432 18.556 24.2868 18.4899C24.4164 18.6418 24.3176 18.5276 24.2921 18.4926C24.2579 18.4457 24.2269 18.3966 24.1965 18.3474C24.1505 18.273 24.1114 18.195 24.0746 18.116C24.1671 18.3145 24.0559 18.0474 24.0394 17.9935C24.0133 17.9082 23.9952 17.8209 23.9797 17.7333C24.0157 17.9371 23.9871 17.7831 23.983 17.7381C23.9773 17.6771 23.9761 17.6159 23.9754 17.5547C23.9745 17.4664 23.9817 17.3781 23.9913 17.2903C23.9668 17.5134 24.0107 17.223 24.0253 17.1665C24.0473 17.081 24.0771 16.9976 24.1094 16.9153C24.0365 17.1013 24.0902 16.9602 24.1093 16.9208C24.1348 16.8685 24.1638 16.8179 24.1933 16.7676C24.2374 16.6925 24.288 16.6213 24.3406 16.5516C24.21 16.7246 24.3914 16.5029 24.4308 16.463C24.4922 16.4009 24.559 16.3439 24.6272 16.289C24.4711 16.4147 24.5886 16.3184 24.6246 16.2936C24.6731 16.2602 24.7237 16.2301 24.7747 16.2004C24.8515 16.1557 24.9321 16.1175 25.0137 16.0816C24.8095 16.1713 25.0851 16.063 25.1407 16.0469C25.2288 16.0215 25.3191 16.0038 25.4097 15.9887C25.1998 16.0237 25.3588 15.9959 25.4052 15.9918C25.4682 15.9863 25.5315 15.985 25.5947 15.9844C25.6893 15.9835 25.7837 15.9908 25.8775 16.0009C25.6472 15.9761 25.9468 16.0208 26.0048 16.0351C26.0928 16.0569 26.1786 16.0861 26.2633 16.1177C26.0714 16.0461 26.2169 16.0997 26.2572 16.1183C26.3111 16.1432 26.3631 16.1716 26.4148 16.2004C26.492 16.2435 26.5653 16.2929 26.6369 16.3441C26.4588 16.2166 26.6867 16.3943 26.7274 16.4325C26.7912 16.4923 26.8497 16.5573 26.9061 16.6237C26.7769 16.4717 26.8755 16.5868 26.9008 16.6217C26.9349 16.6688 26.9658 16.7181 26.9962 16.7676C27.0421 16.8423 27.0811 16.9207 27.1177 17C27.026 16.8014 27.1361 17.07 27.1523 17.1237C27.1781 17.2094 27.196 17.297 27.2111 17.3849C27.176 17.181 27.2033 17.3362 27.2072 17.3808C27.2125 17.4386 27.2136 17.4967 27.2142 17.5547C27.2176 17.9321 27.5364 18.2472 27.9283 18.2472C28.315 18.2472 28.646 17.9322 28.6425 17.5547C28.6346 16.6894 28.2405 15.8271 27.5377 15.2827C26.7715 14.6891 25.808 14.4713 24.8494 14.6886C23.9963 14.882 23.2292 15.4952 22.8569 16.2611C22.4384 17.122 22.462 18.0834 22.899 18.9326C23.5241 20.1475 25.0076 20.7221 26.3388 20.4212C27.6874 20.1163 28.6289 18.8744 28.6425 17.5547C28.6463 17.1771 28.3147 16.8621 27.9283 16.8621C27.5361 16.8621 27.218 17.1772 27.2142 17.5547Z" fill="#A8A8A8"/>
<path d="M8.23523 17.5547C8.23428 17.6463 8.22874 17.7371 8.21836 17.8282C8.24384 17.6044 8.19806 17.8946 8.18334 17.9508C8.16103 18.036 8.13103 18.119 8.09862 18.201C8.17232 18.0147 8.1176 18.1555 8.09835 18.1948C8.07281 18.2469 8.0437 18.2973 8.01415 18.3473C7.96997 18.4221 7.91927 18.493 7.86666 18.5623C7.99806 18.3892 7.81592 18.6102 7.7765 18.6499C7.71508 18.7117 7.64839 18.7684 7.58024 18.8231C7.73685 18.6974 7.61908 18.7932 7.58303 18.818C7.53464 18.8512 7.48403 18.8812 7.43323 18.9107C7.35654 18.9552 7.27604 18.9932 7.19466 19.0289C7.39939 18.9392 7.12389 19.0471 7.06829 19.063C6.98034 19.0883 6.89029 19.1059 6.79997 19.1209C7.01013 19.086 6.85135 19.1137 6.80493 19.1178C6.74209 19.1233 6.67893 19.1245 6.61588 19.1251C6.52161 19.126 6.42744 19.1188 6.33382 19.1087C6.56463 19.1334 6.26536 19.089 6.20738 19.0748C6.11957 19.0531 6.03394 19.024 5.94943 18.9926C6.14154 19.0641 5.99636 19.011 5.95586 18.9924C5.90209 18.9676 5.85016 18.9394 5.79857 18.9107C5.72148 18.8679 5.64836 18.8187 5.57684 18.7677C5.75542 18.8951 5.5275 18.7185 5.48655 18.6803C5.42279 18.6207 5.36433 18.556 5.30794 18.4899C5.43755 18.6418 5.33872 18.5276 5.31321 18.4926C5.279 18.4457 5.24802 18.3966 5.21758 18.3474C5.17167 18.273 5.1325 18.195 5.09573 18.116C5.1882 18.3145 5.077 18.0474 5.0605 17.9935C5.03445 17.9082 5.01629 17.8209 5.00082 17.7333C5.03683 17.9371 5.00827 17.7831 5.00408 17.7381C4.9984 17.6771 4.99718 17.6159 4.99653 17.5547C4.99561 17.4664 5.00276 17.3781 5.01238 17.2903C4.98793 17.5134 5.03183 17.223 5.04642 17.1665C5.06846 17.081 5.09825 16.9976 5.13049 16.9153C5.05764 17.1013 5.11131 16.9602 5.13046 16.9208C5.15589 16.8685 5.18497 16.8179 5.21445 16.7676C5.25853 16.6925 5.3092 16.6213 5.36178 16.5516C5.23119 16.7246 5.41252 16.5029 5.45193 16.463C5.51338 16.4009 5.58014 16.3439 5.64836 16.289C5.4923 16.4147 5.60976 16.3184 5.64578 16.2936C5.69424 16.2602 5.74494 16.2301 5.79585 16.2004C5.87268 16.1557 5.95331 16.1175 6.03486 16.0816C5.83074 16.1713 6.10628 16.063 6.16188 16.0469C6.25003 16.0215 6.34032 16.0038 6.43085 15.9887C6.22102 16.0237 6.38 15.9959 6.42636 15.9918C6.48937 15.9863 6.5527 15.985 6.61592 15.9844C6.71046 15.9835 6.80486 15.9908 6.89873 16.0009C6.66839 15.9761 6.96807 16.0208 7.02598 16.0351C7.11399 16.0569 7.19983 16.0861 7.28454 16.1177C7.09267 16.0461 7.23816 16.0997 7.27846 16.1183C7.33232 16.1432 7.38436 16.1716 7.43605 16.2004C7.51328 16.2435 7.58653 16.2929 7.65815 16.3441C7.48005 16.2166 7.70791 16.3943 7.74868 16.4325C7.81248 16.4923 7.87094 16.5573 7.92733 16.6237C7.7982 16.4717 7.89672 16.5868 7.92199 16.6217C7.9562 16.6688 7.98708 16.7181 8.01745 16.7676C8.06329 16.8423 8.10236 16.9207 8.13896 17C8.04724 16.8014 8.15732 17.07 8.17351 17.1237C8.19935 17.2094 8.21724 17.297 8.23238 17.3849C8.19721 17.181 8.22449 17.3362 8.22846 17.3808C8.23353 17.4386 8.23469 17.4967 8.23523 17.5547C8.23887 17.9321 8.55735 18.2472 8.9494 18.2472C9.33596 18.2472 9.6672 17.9322 9.66356 17.5547C9.65523 16.6893 9.26176 15.8273 8.55871 15.2827C7.79252 14.6891 6.82898 14.4713 5.87043 14.6886C5.01731 14.882 4.25027 15.4952 3.87791 16.2611C3.45935 17.122 3.48298 18.0834 3.91998 18.9326C4.54515 20.1475 6.0286 20.7221 7.35984 20.4212C8.70842 20.1163 9.64996 18.8744 9.66356 17.5547C9.66744 17.1771 9.33576 16.8621 8.9494 16.8621C8.55715 16.8621 8.23914 17.1772 8.23523 17.5547Z" fill="#A8A8A8"/>
<path d="M27.4774 10.548C26.1234 10.548 24.7693 10.548 23.4153 10.548C23.6534 10.7789 23.8914 11.0097 24.1295 11.2406C24.1295 10.0703 24.1295 8.89997 24.1295 7.7297C23.8914 7.96054 23.6534 8.19138 23.4153 8.42222C24.1742 8.42222 24.9352 8.40478 25.6938 8.42341C25.858 8.42743 25.5303 8.38984 25.6831 8.42611C25.8322 8.4615 25.5363 8.35188 25.6698 8.41757C25.718 8.44128 25.8135 8.52755 25.6593 8.40108C25.6971 8.43208 25.781 8.54022 25.6568 8.37995C25.6822 8.41266 25.7019 8.44907 25.7215 8.48508C25.6305 8.31818 25.695 8.42486 25.7116 8.47835C25.7182 8.49988 25.721 8.51667 25.7282 8.53632C25.7703 8.65102 25.8124 8.76568 25.8545 8.88035C26.0277 9.35182 26.2008 9.82334 26.3739 10.2948C26.5122 10.6714 26.6505 11.0481 26.7887 11.4247C26.9192 11.78 27.271 12.0141 27.6673 11.9084C28.0217 11.8139 28.2967 11.4124 28.1661 11.0565C27.8833 10.2865 27.6006 9.51655 27.3179 8.74656C27.2579 8.58319 27.198 8.41982 27.138 8.25648C27.0659 8.06003 27.0115 7.8564 26.8902 7.68086C26.6063 7.27019 26.1453 7.03717 25.6352 7.03717C25.4847 7.03717 25.3343 7.03717 25.1838 7.03717C24.5943 7.03717 24.0048 7.03717 23.4153 7.03717C23.026 7.03717 22.7012 7.35217 22.7012 7.7297C22.7012 8.9 22.7012 10.0703 22.7012 11.2406C22.7012 11.6181 23.026 11.9331 23.4153 11.9331C24.7694 11.9331 26.1234 11.9331 27.4774 11.9331C27.8667 11.9331 28.1916 11.6181 28.1916 11.2406C28.1916 10.8631 27.8667 10.548 27.4774 10.548Z" fill="#A8A8A8"/>
<path d="M17.2996 7.03717C16.0781 7.03717 14.8566 7.03717 13.6351 7.03717C13.2457 7.03717 12.9209 7.35217 12.9209 7.7297C12.9209 8.10722 13.2457 8.42222 13.6351 8.42222C14.8566 8.42222 16.0781 8.42222 17.2996 8.42222C17.6889 8.42222 18.0137 8.10722 18.0137 7.7297C18.0137 7.35217 17.6889 7.03717 17.2996 7.03717Z" fill="#A8A8A8"/>
<path d="M17.2992 10.548C15.9129 10.548 14.5266 10.548 13.1403 10.548C11.1973 10.548 9.2543 10.548 7.31126 10.548C7.11432 10.548 6.91742 10.548 6.72051 10.548C6.33122 10.548 6.00635 10.8631 6.00635 11.2406C6.00635 11.6181 6.33122 11.9331 6.72051 11.9331C8.10681 11.9331 9.4931 11.9331 10.8794 11.9331C12.8224 11.9331 14.7654 11.9331 16.7085 11.9331C16.9054 11.9331 17.1023 11.9331 17.2992 11.9331C17.6885 11.9331 18.0134 11.6181 18.0134 11.2406C18.0134 10.8631 17.6885 10.548 17.2992 10.548Z" fill="#A8A8A8"/>
</svg>
