<svg width="18" height="16" viewBox="0 0 18 16" fill="none" xmlns="http://www.w3.org/2000/svg">
<path d="M14.0623 0.0965007C12.2433 -0.288706 10.5313 0.481707 8.99045 2.36494C7.44962 0.481707 5.7376 -0.288706 3.91857 0.0965007C1.69293 0.567309 0.0451015 2.49334 0.00230076 4.69758C-0.0190996 5.36099 0.109302 6.0244 0.366107 6.64501C0.794114 7.71503 2.97695 9.87646 5.9944 12.8297C6.78621 13.6001 7.51382 14.3277 8.04883 14.8627C8.30564 15.1196 8.64804 15.2694 9.01185 15.2694C9.37566 15.2694 9.71806 15.1196 9.97487 14.8627C10.4885 14.3277 11.2375 13.6001 12.0293 12.8297C15.0253 9.87646 17.1868 7.71503 17.6362 6.64501C17.893 6.0244 18 5.38239 18 4.69758C17.9358 2.49334 16.288 0.567309 14.0623 0.0965007Z" fill="#D8D8D8"/>
</svg>
