<svg width="37" height="28" viewBox="0 0 37 28" fill="none" xmlns="http://www.w3.org/2000/svg">
<g clip-path="url(#clip0)">
<path d="M7.36706 27.8496V25.9916C7.37789 25.8356 7.35536 25.6791 7.30096 25.5326C7.24657 25.386 7.16156 25.2527 7.0516 25.1416C6.94164 25.0305 6.80925 24.9441 6.66327 24.8882C6.51729 24.8323 6.36107 24.8081 6.20501 24.8173C6.0009 24.8039 5.79695 24.8456 5.6144 24.9378C5.43186 25.0301 5.2774 25.1696 5.16712 25.3419C5.06659 25.1747 4.9228 25.0377 4.7509 24.9453C4.57901 24.853 4.38538 24.8088 4.19044 24.8173C4.02057 24.8085 3.85135 24.8442 3.69952 24.9208C3.54769 24.9975 3.41852 25.1125 3.3248 25.2545V24.8898H2.68213V27.8496H3.33092V26.2206C3.31684 26.1195 3.32532 26.0165 3.35575 25.9189C3.38617 25.8214 3.43779 25.7319 3.5069 25.6567C3.57601 25.5814 3.66091 25.5225 3.7555 25.4839C3.85009 25.4454 3.95204 25.4282 4.05403 25.4337C4.48073 25.4337 4.6967 25.7118 4.6967 26.2128V27.8566H5.34549V26.2206C5.33268 26.1197 5.34205 26.0172 5.37295 25.9202C5.40384 25.8233 5.45551 25.7342 5.52436 25.6593C5.59321 25.5844 5.67757 25.5254 5.77157 25.4864C5.86557 25.4475 5.96694 25.4295 6.0686 25.4337C6.50579 25.4337 6.7174 25.7118 6.7174 26.2128V27.8566L7.36706 27.8496ZM16.9686 24.8951H15.9115V23.9954H15.2627V24.8916H14.676V25.4783H15.2758V26.838C15.2758 27.5243 15.5381 27.9318 16.3015 27.9318C16.5856 27.9326 16.8641 27.8532 17.105 27.7027L16.9197 27.1527C16.7474 27.2555 16.5518 27.313 16.3513 27.3197C16.0427 27.3197 15.9246 27.1221 15.9246 26.8257V25.4792H16.9739L16.9686 24.8951ZM22.451 24.8208C22.2943 24.8164 22.1392 24.8543 22.0022 24.9305C21.8651 25.0066 21.751 25.1182 21.6719 25.2536V24.8951H21.0354V27.8496H21.678V26.1883C21.678 25.7004 21.8879 25.4285 22.2962 25.4285C22.4336 25.4267 22.57 25.452 22.6976 25.5028L22.8952 24.8846C22.7484 24.8321 22.5938 24.8049 22.4379 24.8042L22.451 24.8208ZM14.1627 25.1294C13.799 24.9133 13.3808 24.8062 12.9579 24.8208C12.2103 24.8208 11.7215 25.1793 11.7215 25.766C11.7215 26.2478 12.08 26.545 12.741 26.6403L13.0497 26.6832C13.3994 26.733 13.569 26.8257 13.569 26.9918C13.569 27.2209 13.3338 27.3503 12.8958 27.3503C12.5428 27.3606 12.1967 27.2519 11.913 27.0417L11.6043 27.5427C11.9787 27.804 12.4271 27.9382 12.8835 27.9257C13.736 27.9257 14.2309 27.5243 14.2309 26.9639C14.2309 26.4034 13.8418 26.1769 13.1992 26.0799L12.8905 26.037C12.6125 26.0003 12.3895 25.9443 12.3895 25.7467C12.3895 25.5491 12.5994 25.397 12.9517 25.397C13.2773 25.4009 13.5964 25.4882 13.8786 25.6506L14.1627 25.1294ZM31.3784 24.8208C31.2217 24.8164 31.0667 24.8543 30.9296 24.9305C30.7925 25.0066 30.6785 25.1182 30.5994 25.2536V24.8951H29.9628V27.8496H30.6055V26.1883C30.6055 25.7004 30.8153 25.4285 31.2237 25.4285C31.361 25.4267 31.4974 25.452 31.625 25.5028L31.8226 24.8846C31.6758 24.8321 31.5212 24.8049 31.3653 24.8042L31.3784 24.8208ZM23.0963 26.3632C23.0887 26.5706 23.1244 26.7773 23.2012 26.9701C23.278 27.1629 23.3941 27.3376 23.5423 27.483C23.6904 27.6284 23.8672 27.7413 24.0614 27.8145C24.2556 27.8877 24.4629 27.9196 24.6702 27.9082C25.0559 27.9286 25.4352 27.8038 25.7334 27.5584L25.4248 27.0364C25.202 27.2047 24.931 27.2967 24.6518 27.2987C24.4142 27.2796 24.1924 27.1717 24.0307 26.9965C23.869 26.8212 23.7793 26.5915 23.7793 26.3531C23.7793 26.1147 23.869 25.885 24.0307 25.7098C24.1924 25.5345 24.4142 25.4266 24.6518 25.4075C24.931 25.4095 25.202 25.5015 25.4248 25.6698L25.7334 25.1504C25.4352 24.905 25.0559 24.7803 24.6702 24.8007C24.4629 24.7892 24.2556 24.8211 24.0614 24.8943C23.8672 24.9675 23.6904 25.0804 23.5423 25.2258C23.3941 25.3712 23.278 25.5459 23.2012 25.7387C23.1244 25.9316 23.0887 26.1383 23.0963 26.3457V26.3632ZM29.1164 26.3632V24.8916H28.4737V25.2501C28.3646 25.1096 28.2237 24.9972 28.0625 24.9219C27.9014 24.8466 27.7246 24.8108 27.5469 24.8173C27.1371 24.8173 26.7441 24.9801 26.4544 25.2698C26.1646 25.5596 26.0019 25.9525 26.0019 26.3623C26.0019 26.7721 26.1646 27.165 26.4544 27.4548C26.7441 27.7445 27.1371 27.9073 27.5469 27.9073C27.7246 27.9138 27.9014 27.8779 28.0625 27.8027C28.2237 27.7274 28.3646 27.6149 28.4737 27.4745V27.833H29.1164V26.3632ZM26.725 26.3632C26.7385 26.16 26.8215 25.9677 26.9601 25.8185C27.0987 25.6694 27.2844 25.5724 27.486 25.544C27.6876 25.5156 27.8928 25.5575 28.0672 25.6626C28.2416 25.7677 28.3745 25.9296 28.4436 26.1211C28.5127 26.3126 28.5138 26.5221 28.4467 26.7143C28.3796 26.9065 28.2483 27.0698 28.075 27.1766C27.9017 27.2835 27.6969 27.3275 27.495 27.3011C27.2931 27.2748 27.1064 27.1798 26.9663 27.0321C26.8824 26.9431 26.8177 26.8377 26.7762 26.7227C26.7346 26.6076 26.7172 26.4852 26.725 26.3632ZM18.9683 24.8182C18.7654 24.821 18.5651 24.8637 18.3787 24.944C18.1923 25.0242 18.0236 25.1404 17.8821 25.2858C17.7406 25.4313 17.6292 25.6032 17.5541 25.7917C17.4791 25.9802 17.4419 26.1817 17.4447 26.3846C17.4475 26.5875 17.4903 26.7878 17.5705 26.9742C17.6508 27.1606 17.767 27.3293 17.9124 27.4708C18.0579 27.6123 18.2298 27.7237 18.4183 27.7988C18.6068 27.8738 18.8083 27.911 19.0112 27.9082C19.4548 27.9305 19.891 27.7875 20.2353 27.5068L19.9267 27.0312C19.6825 27.2268 19.38 27.3355 19.0671 27.3398C18.8547 27.3581 18.6435 27.2927 18.4784 27.1577C18.3133 27.0227 18.2074 26.8286 18.1831 26.6167H20.3796V26.3693C20.3993 26.1738 20.3778 25.9764 20.3164 25.7898C20.255 25.6032 20.1552 25.4316 20.0233 25.286C19.8915 25.1404 19.7306 25.024 19.5509 24.9445C19.3713 24.865 19.177 24.824 18.9806 24.8243L18.9683 24.8182ZM18.9683 25.3926C19.1625 25.3886 19.3504 25.4619 19.4906 25.5964C19.6307 25.7308 19.7118 25.9154 19.7159 26.1096H18.1674C18.1785 25.9108 18.2672 25.7243 18.4143 25.5903C18.5615 25.4562 18.7554 25.3852 18.9544 25.3926H18.9683ZM35.0718 26.3693V23.7051H34.4536V25.2501C34.3445 25.1096 34.2036 24.9972 34.0424 24.9219C33.8812 24.8466 33.7045 24.8108 33.5268 24.8173C33.117 24.8173 32.724 24.9801 32.4343 25.2698C32.1445 25.5596 31.9818 25.9525 31.9818 26.3623C31.9818 26.7721 32.1445 27.165 32.4343 27.4548C32.724 27.7445 33.117 27.9073 33.5268 27.9073C33.7045 27.9138 33.8812 27.8779 34.0424 27.8027C34.2036 27.7274 34.3445 27.6149 34.4536 27.4745V27.833H35.0718V26.3693ZM36.1438 27.4185C36.2022 27.4171 36.2597 27.433 36.3092 27.4641C36.3586 27.4952 36.3978 27.5402 36.4219 27.5934C36.4375 27.6296 36.4456 27.6685 36.4456 27.708C36.4456 27.7474 36.4375 27.7863 36.4219 27.8225C36.3905 27.8931 36.3328 27.9487 36.261 27.9773C36.224 27.9935 36.1841 28.0018 36.1438 28.0017C36.0857 28.0017 36.0288 27.9853 35.9796 27.9544C35.9304 27.9234 35.8909 27.8792 35.8657 27.8269C35.8502 27.7907 35.8422 27.7517 35.8422 27.7123C35.8422 27.6729 35.8502 27.634 35.8657 27.5978C35.8907 27.5432 35.9314 27.4973 35.9827 27.4662C36.034 27.435 36.0935 27.4199 36.1534 27.4229L36.1438 27.4185ZM36.1438 27.9432C36.1739 27.9431 36.2037 27.9368 36.2312 27.9248C36.2578 27.9128 36.2818 27.8959 36.3021 27.875C36.3269 27.8491 36.3451 27.8176 36.3552 27.7832C36.3653 27.7488 36.367 27.7124 36.36 27.6773C36.3531 27.6421 36.3377 27.6091 36.3153 27.5811C36.2929 27.5531 36.264 27.5309 36.2312 27.5165C36.2036 27.5045 36.1739 27.4983 36.1438 27.4981C36.1137 27.4985 36.084 27.5047 36.0564 27.5165C36.0285 27.5279 36.0032 27.5449 35.982 27.5663C35.9514 27.5989 35.9313 27.6398 35.9241 27.684C35.917 27.7281 35.9233 27.7733 35.9421 27.8138C35.9609 27.8544 35.9914 27.8884 36.0297 27.9114C36.068 27.9345 36.1123 27.9455 36.1569 27.9432H36.1438ZM36.1622 27.575C36.191 27.5735 36.2195 27.5822 36.2426 27.5995C36.2521 27.6073 36.2596 27.6172 36.2644 27.6285C36.2693 27.6397 36.2714 27.652 36.2706 27.6642C36.271 27.6746 36.2693 27.6849 36.2656 27.6945C36.2618 27.7042 36.2561 27.7129 36.2487 27.7202C36.2309 27.7365 36.2081 27.7463 36.184 27.7482L36.2715 27.8505H36.2006L36.1132 27.7482H36.0922V27.8496H36.0336V27.5777L36.1622 27.575ZM36.094 27.6275V27.7018H36.1622C36.1741 27.7054 36.1869 27.7054 36.1989 27.7018C36.1989 27.6832 36.1989 27.6645 36.1989 27.6459C36.1869 27.6423 36.1741 27.6423 36.1622 27.6459L36.094 27.6275ZM32.6944 26.3728C32.7079 26.1696 32.7909 25.9773 32.9295 25.8281C33.0681 25.679 33.2538 25.582 33.4554 25.5536C33.657 25.5252 33.8622 25.5671 34.0366 25.6722C34.211 25.7773 34.3439 25.9392 34.413 26.1307C34.4821 26.3222 34.4832 26.5317 34.4161 26.7239C34.349 26.9161 34.2177 27.0794 34.0444 27.1863C33.8711 27.2931 33.6663 27.3371 33.4644 27.3108C33.2625 27.2844 33.0758 27.1894 32.9357 27.0417C32.8512 26.9522 32.7862 26.8461 32.7447 26.7303C32.7031 26.6144 32.686 26.4912 32.6944 26.3684V26.3728ZM10.9914 26.3728V24.8916H10.3487V25.2501C10.2396 25.1096 10.0986 24.9972 9.93748 24.9219C9.77633 24.8466 9.59959 24.8108 9.42185 24.8173C9.01209 24.8173 8.6191 24.9801 8.32935 25.2698C8.0396 25.5596 7.87682 25.9525 7.87682 26.3623C7.87682 26.7721 8.0396 27.165 8.32935 27.4548C8.6191 27.7445 9.01209 27.9073 9.42185 27.9073C9.59959 27.9138 9.77633 27.8779 9.93748 27.8027C10.0986 27.7274 10.2396 27.6149 10.3487 27.4745V27.833H10.9914V26.3728ZM8.59994 26.3728C8.70008 26.3736 8.79582 26.4141 8.86621 26.4853C8.93659 26.5565 8.97588 26.6528 8.97548 26.7529C8.97508 26.853 8.93501 26.949 8.86405 27.0196C8.79309 27.0903 8.69702 27.13 8.59688 27.13C8.49673 27.13 8.40066 27.0903 8.3297 27.0196C8.25874 26.949 8.21868 26.853 8.21827 26.7529C8.21787 26.6528 8.25716 26.5565 8.32754 26.4853C8.39793 26.4141 8.49367 26.3736 8.59382 26.3728H8.59994Z" fill="white"/>
<path opacity="0.8" d="M23.6837 2.37939H13.9492V19.8729H23.6837V2.37939Z" fill="white"/>
<path d="M14.5676 11.1274C14.5658 9.4424 14.9475 7.77907 15.6837 6.26341C16.42 4.74775 17.4915 3.41952 18.8171 2.37933C17.176 1.08956 15.205 0.287543 13.1296 0.0649232C11.0542 -0.157696 8.95797 0.208067 7.08059 1.12041C5.2032 2.03276 3.62037 3.45487 2.51299 5.22423C1.40561 6.99358 0.818359 9.03879 0.818359 11.1261C0.818359 13.2134 1.40561 15.2586 2.51299 17.028C3.62037 18.7973 5.2032 20.2194 7.08059 21.1318C8.95797 22.0441 11.0542 22.4099 13.1296 22.1873C15.205 21.9647 17.176 21.1626 18.8171 19.8729C17.4921 18.8331 16.4209 17.5056 15.6847 15.9908C14.9485 14.4759 14.5665 12.8134 14.5676 11.1292V11.1274Z" fill="white"/>
<path d="M36.8168 11.1274C36.8165 13.2148 36.229 15.26 35.1213 17.0293C34.0135 18.7986 32.4304 20.2205 30.5527 21.1326C28.6751 22.0446 26.5787 22.41 24.5032 22.1869C22.4277 21.9638 20.4569 21.1613 18.8159 19.8711C20.1405 18.8302 21.2113 17.502 21.9477 15.9868C22.684 14.4716 23.0666 12.809 23.0666 11.1243C23.0666 9.4397 22.684 7.77706 21.9477 6.26187C21.2113 4.74668 20.1405 3.4185 18.8159 2.37756C20.4569 1.08734 22.4277 0.284827 24.5032 0.0617568C26.5787 -0.161314 28.6751 0.204055 30.5527 1.1161C32.4304 2.02815 34.0135 3.45007 35.1213 5.21935C36.229 6.98862 36.8165 9.03385 36.8168 11.1213V11.1274Z" fill="white"/>
<path d="M35.7528 18.0192V17.6607H35.8979V17.5864H35.5298V17.6607H35.6872V18.0192H35.7528ZM36.4662 18.0192V17.5864H36.3552L36.2258 17.8951L36.0964 17.5864H35.9976V18.0192H36.078V17.6948L36.1987 17.9764H36.2861L36.4068 17.6948V18.0227L36.4662 18.0192Z" fill="white"/>
</g>
<defs>
<clipPath id="clip0">
<rect width="36" height="28" fill="white" transform="translate(0.816895)"/>
</clipPath>
</defs>
</svg>
