<svg width="51" height="16" viewBox="0 0 51 16" fill="none" xmlns="http://www.w3.org/2000/svg">
<g clip-path="url(#clip0)">
<path d="M22.4844 15.7686H18.4336L20.9673 0.280762H25.0171L22.4844 15.7686Z" fill="white"/>
<path d="M37.1656 0.659369C36.0065 0.218022 34.7743 -0.00556183 33.5323 0.000105083C29.5327 0.000105083 26.7159 2.10879 26.6985 5.1242C26.6656 7.34849 28.7152 8.58389 30.2478 9.32818C31.8151 10.0859 32.3475 10.5808 32.3475 11.2563C32.3311 12.2939 31.0817 12.7726 29.9154 12.7726C28.5995 12.809 27.2946 12.5262 26.1148 11.949L25.5814 11.7015L25.0151 15.1784C26.4554 15.7307 27.9879 16.0104 29.5327 16.003C33.7845 16.003 36.5491 13.9268 36.5868 10.7136C36.6032 8.95078 35.5238 7.59977 33.1873 6.49527C31.7707 5.78633 30.9029 5.3086 30.9029 4.58437C30.9193 3.92511 31.6363 3.24673 33.2356 3.24673C34.2736 3.21693 35.305 3.41978 36.2524 3.84007L36.6186 4.00441L37.1694 0.660324L37.1656 0.659369Z" fill="white"/>
<path d="M42.5493 10.2825C42.8827 9.39301 44.1659 5.9486 44.1659 5.9486C44.1495 5.98205 44.4984 5.04284 44.6984 4.46575L44.9815 5.80338C44.9815 5.80338 45.7487 9.51053 45.915 10.2854L42.5493 10.2825ZM47.549 0.280864H44.4162C43.9684 0.227381 43.5155 0.325262 43.1311 0.55858C42.7467 0.791898 42.4534 1.14693 42.299 1.56595L36.2827 15.7687H40.5345L41.3849 13.4451H46.5856C46.7016 13.9887 47.0688 15.7687 47.0688 15.7687H50.819L47.5509 0.280864H47.549Z" fill="white"/>
<path d="M15.0497 0.280762L11.0878 10.8423L10.6539 8.70021C9.66578 5.92311 7.66799 3.60889 5.04932 2.20791L8.68265 15.7524H12.9653L19.3314 0.280762H15.0497Z" fill="white"/>
<path d="M7.39942 0.280992H0.88357L0.816895 0.594383C5.90067 1.87947 9.26635 4.978 10.6501 8.70139L9.23349 1.58327C9.14693 1.17886 8.91061 0.821055 8.5709 0.580103C8.2312 0.339152 7.81267 0.232463 7.39749 0.280992H7.39942Z" fill="white"/>
</g>
<defs>
<clipPath id="clip0">
<rect width="50" height="16" fill="white" transform="translate(0.816895)"/>
</clipPath>
</defs>
</svg>
