<svg width="18" height="24" viewBox="0 0 18 24" fill="none" xmlns="http://www.w3.org/2000/svg">
<path d="M0.808593 23.9944C0.590973 23.9856 0.3853 23.8955 0.234596 23.743C0.0838918 23.5906 -0.000167991 23.3875 2.52063e-07 23.1764V2.9993C2.52063e-07 1.35184 1.39441 0 3.09375 0H14.9062C16.6056 0 18 1.35184 18 2.9993V23.1764C18.001 23.323 17.9614 23.4671 17.8853 23.5938C17.8091 23.7205 17.6993 23.825 17.5672 23.8964C17.4352 23.9678 17.2858 24.0035 17.1346 23.9997C16.9834 23.996 16.8361 23.9529 16.708 23.8751L8.99999 19.2398L1.292 23.8751C1.14695 23.9612 0.978448 24.0027 0.808593 23.9944ZM1.6875 21.7108L8.55173 17.5782C8.68607 17.4966 8.84143 17.4533 8.99999 17.4533C9.15855 17.4533 9.31391 17.4966 9.44825 17.5782L16.3125 21.7108V2.9993C16.3125 2.22987 15.6999 1.63598 14.9062 1.63598H3.09375C2.30009 1.63598 1.6875 2.22987 1.6875 2.9993V21.7108Z" fill="#5A5A5A"/>
</svg>
