<svg width="18" height="17" viewBox="0 0 18 17" fill="none" xmlns="http://www.w3.org/2000/svg">
<path d="M14.0623 0.961735C12.2433 0.576529 10.5313 1.34694 8.99045 3.23017C7.44962 1.34694 5.7376 0.576529 3.91857 0.961735C1.69293 1.43254 0.0451015 3.35858 0.00230076 5.56281C-0.0190996 6.22622 0.109302 6.88963 0.366107 7.51024C0.794114 8.58026 2.97695 10.7417 5.9944 13.6949C6.78621 14.4654 7.51382 15.193 8.04883 15.728C8.30564 15.9848 8.64804 16.1346 9.01185 16.1346C9.37566 16.1346 9.71806 15.9848 9.97487 15.728C10.4885 15.193 11.2375 14.4654 12.0293 13.6949C15.0253 10.7417 17.1868 8.58026 17.6362 7.51024C17.893 6.88963 18 6.24762 18 5.56281C17.9358 3.35858 16.288 1.43254 14.0623 0.961735Z" fill="url(#paint0_linear)"/>
<defs>
<linearGradient id="paint0_linear" x1="-2.14285" y1="-3.80044" x2="26.2867" y2="4.41114" gradientUnits="userSpaceOnUse">
<stop stop-color="#4AEFE5"/>
<stop offset="1" stop-color="#CDEA20"/>
</linearGradient>
</defs>
</svg>
