<svg width="63" height="23" viewBox="0 0 63 23" fill="none" xmlns="http://www.w3.org/2000/svg">
<g clip-path="url(#clip0)">
<path d="M41.503 4.81406V15.4841C41.503 15.561 41.4724 15.6347 41.418 15.6891C41.3636 15.7435 41.2899 15.7741 41.213 15.7741H39.033C38.956 15.7741 38.8823 15.7435 38.8279 15.6891C38.7735 15.6347 38.743 15.561 38.743 15.4841V4.81406C38.743 4.73715 38.7735 4.66339 38.8279 4.609C38.8823 4.55462 38.956 4.52406 39.033 4.52406H41.213C41.2899 4.52406 41.3636 4.55462 41.418 4.609C41.4724 4.66339 41.503 4.73715 41.503 4.81406ZM58.487 4.52406H56.048C55.9866 4.52378 55.9267 4.543 55.8769 4.57894C55.8271 4.61488 55.79 4.66569 55.771 4.72406L53.841 11.0311L51.72 4.71906C51.701 4.66102 51.6642 4.61044 51.6148 4.57453C51.5655 4.53862 51.506 4.51921 51.445 4.51906H49.745C49.6839 4.51921 49.6244 4.53862 49.5751 4.57453C49.5257 4.61044 49.4889 4.66102 49.47 4.71906L47.347 11.0311L45.417 4.73106C45.3979 4.67269 45.3608 4.62188 45.311 4.58594C45.2613 4.55 45.2014 4.53078 45.14 4.53106H42.701C42.6551 4.53113 42.6099 4.54204 42.5691 4.56289C42.5282 4.58375 42.4929 4.61396 42.466 4.65106C42.4391 4.68792 42.4215 4.73066 42.4145 4.77571C42.4076 4.82077 42.4115 4.86683 42.426 4.91006L46.008 15.5851C46.0269 15.6431 46.0637 15.6937 46.1131 15.7296C46.1624 15.7655 46.2219 15.7849 46.283 15.7851H48.219C48.28 15.7849 48.3395 15.7655 48.3888 15.7296C48.4382 15.6937 48.475 15.6431 48.494 15.5851L50.594 9.34806L52.694 15.5851C52.7129 15.6431 52.7497 15.6937 52.7991 15.7296C52.8484 15.7655 52.9079 15.7849 52.969 15.7851H54.905C54.966 15.7849 55.0255 15.7655 55.0748 15.7296C55.1242 15.6937 55.161 15.6431 55.18 15.5851L58.759 4.90206C58.7734 4.85883 58.7773 4.81276 58.7704 4.76771C58.7634 4.72266 58.7458 4.67992 58.719 4.64306C58.6922 4.60655 58.6573 4.57678 58.617 4.55612C58.5768 4.53547 58.5322 4.52449 58.487 4.52406ZM62.155 4.52406H59.975C59.898 4.52406 59.8243 4.55462 59.7699 4.609C59.7155 4.66339 59.685 4.73715 59.685 4.81406V15.4841C59.685 15.561 59.7155 15.6347 59.7699 15.6891C59.8243 15.7435 59.898 15.7741 59.975 15.7741H62.155C62.2319 15.7741 62.3056 15.7435 62.36 15.6891C62.4144 15.6347 62.445 15.561 62.445 15.4841V4.81406C62.445 4.73784 62.415 4.66468 62.3614 4.6104C62.3079 4.55613 62.2352 4.52511 62.159 4.52406H62.155ZM37.482 15.4071C37.5098 15.4393 37.5277 15.4789 37.5337 15.5211C37.5396 15.5632 37.5333 15.6062 37.5155 15.6449C37.4977 15.6836 37.4691 15.7164 37.4332 15.7393C37.3973 15.7622 37.3555 15.7742 37.313 15.7741H34.643C34.5893 15.774 34.5363 15.7621 34.4878 15.7393C34.4392 15.7165 34.3963 15.6833 34.362 15.6421L33.909 15.0971C32.6853 15.889 31.212 16.2004 29.7725 15.9713C28.3331 15.7422 27.0292 14.9888 26.1118 13.8561C25.1945 12.7234 24.7285 11.2915 24.8035 9.83582C24.8785 8.38018 25.4892 7.00371 26.5181 5.9713C27.547 4.93889 28.9214 4.3235 30.3768 4.24355C31.8321 4.1636 33.2657 4.62473 34.4015 5.53823C35.5373 6.45172 36.2951 7.753 36.5291 9.19167C36.7631 10.6303 36.4567 12.1047 35.669 13.3311L37.482 15.4071ZM32.189 13.0311L31.019 11.6241C30.9918 11.5909 30.9745 11.5508 30.9692 11.5082C30.9639 11.4657 30.9707 11.4225 30.9889 11.3837C31.0071 11.3449 31.0359 11.312 31.0721 11.2889C31.1082 11.2658 31.1501 11.2533 31.193 11.2531H33.64C33.7598 10.8987 33.8212 10.5272 33.822 10.1531C33.7936 9.54363 33.5869 8.95594 33.2276 8.46288C32.8683 7.96982 32.3721 7.59309 31.8006 7.37942C31.2292 7.16575 30.6076 7.12453 30.0129 7.26088C29.4183 7.39723 28.8767 7.70516 28.4554 8.14646C28.0342 8.58776 27.7517 9.14302 27.6431 9.74337C27.5345 10.3437 27.6045 10.9627 27.8445 11.5237C28.0844 12.0846 28.4838 12.5627 28.993 12.8988C29.5022 13.2348 30.0989 13.414 30.709 13.4141C31.227 13.4154 31.7366 13.2835 32.189 13.0311ZM18.122 15.3531C18.188 15.7981 18.048 15.9821 17.907 15.9821C17.766 15.9821 17.56 15.8021 17.332 15.4461C17.2264 15.3129 17.1533 15.157 17.1186 14.9907C17.0839 14.8244 17.0885 14.6523 17.132 14.4881C17.1733 14.4175 17.2402 14.3656 17.3188 14.3433C17.3975 14.3209 17.4817 14.3298 17.554 14.3681C17.935 14.5111 18.083 15.0881 18.122 15.3531ZM16.039 16.3221C16.49 16.7041 16.628 17.1571 16.389 17.4771C16.3164 17.5668 16.2238 17.6383 16.1185 17.6855C16.0132 17.7328 15.8982 17.7546 15.783 17.7491C15.5304 17.7495 15.2858 17.661 15.092 17.4991C14.8988 17.3571 14.7651 17.1487 14.7166 16.914C14.668 16.6793 14.708 16.435 14.829 16.2281C14.8887 16.161 14.9628 16.1082 15.0457 16.0736C15.1286 16.039 15.2182 16.0234 15.308 16.0281C15.5787 16.0373 15.8376 16.1418 16.039 16.3231V16.3221ZM15.284 20.0061C17.6853 20.0681 19.9718 21.0471 21.674 22.7421C21.908 22.9491 22.219 22.6921 22.015 22.4341C21.238 21.3823 20.2606 20.4948 19.139 19.8227C18.0174 19.1506 16.7738 18.7072 15.48 18.5181C14.4519 18.3141 13.4825 17.8823 12.6432 17.2545C11.8039 16.6266 11.116 15.8187 10.63 14.8901C10.445 14.5721 10.362 14.6281 10.346 15.0371C10.327 15.6444 10.3692 16.2522 10.472 16.8511C10.372 16.8511 10.262 16.8511 10.157 16.8511C8.83024 16.8511 7.53331 16.4576 6.43019 15.7206C5.32706 14.9835 4.46728 13.9358 3.95957 12.7101C3.45186 11.4844 3.31902 10.1356 3.57785 8.8344C3.83668 7.53317 4.47555 6.33792 5.41368 5.39979C6.35181 4.46166 7.54706 3.82278 8.84829 3.56396C10.1495 3.30513 11.4983 3.43797 12.724 3.94568C13.9497 4.45339 14.9974 5.31317 15.7345 6.4163C16.4715 7.51942 16.865 8.81635 16.865 10.1431C16.8659 10.4037 16.8519 10.6641 16.823 10.9231C16.116 10.8343 15.4017 10.8209 14.692 10.8831C14.438 10.9051 14.473 11.0241 14.666 11.0581C15.7356 11.1908 16.7268 11.6883 17.4724 12.4666C18.218 13.245 18.6724 14.2567 18.759 15.3311C18.7603 15.3438 18.7656 15.3558 18.7741 15.3653C18.7826 15.3749 18.7939 15.3815 18.8064 15.3843C18.8189 15.387 18.832 15.3858 18.8438 15.3807C18.8555 15.3757 18.8654 15.367 18.872 15.3561C20.022 13.433 20.5033 11.1834 20.2408 8.95815C19.9783 6.73287 18.9868 4.65702 17.4209 3.05434C15.8549 1.45166 13.8026 0.412247 11.584 0.0982225C9.36545 -0.215802 7.1053 0.213213 5.1561 1.31835C3.20689 2.42349 1.6782 4.14263 0.808455 6.20764C-0.0612925 8.27266 -0.223204 10.5675 0.347971 12.7341C0.919147 14.9008 2.1913 16.8176 3.96602 18.1854C5.74074 19.5533 7.91825 20.2955 10.159 20.2961C11.644 20.2961 13.119 20.0071 15.284 20.0071V20.0061Z" fill="white"/>
</g>
<defs>
<clipPath id="clip0">
<rect width="62.435" height="22.818" fill="white" transform="translate(0.00976562)"/>
</clipPath>
</defs>
</svg>
