<svg width="110" height="26" viewBox="0 0 110 26" fill="none" xmlns="http://www.w3.org/2000/svg">
<g clip-path="url(#clip0)">
<path d="M97.0259 1.20579e-06C98.955 -0.000834647 100.859 0.432899 102.598 1.269C102.864 1.389 103.132 1.533 103.398 1.676L102.235 2.706L100.492 0.905999L97.4919 3.54L95.721 1.652L90.1969 6.562L93.7329 10.418L92.3519 11.618L95.8409 15.474L94.4599 16.674L99.4509 22.158L102.405 19.476L104.974 22.351C104.443 22.7561 103.885 23.1237 103.303 23.451C101.393 24.5199 99.2406 25.0801 97.0519 25.078C95.3963 25.0943 93.7537 24.7825 92.2192 24.1605C90.6847 23.5385 89.2887 22.6188 88.1116 21.4543C86.9345 20.2899 85.9997 18.9038 85.3612 17.3761C84.7227 15.8484 84.3932 14.2094 84.3916 12.5536C84.39 10.8979 84.7164 9.2582 85.352 7.72928C85.9876 6.20037 86.9197 4.81249 88.0945 3.64579C89.2694 2.47908 90.6637 1.55665 92.197 0.931756C93.7303 0.306862 95.3722 -0.00811899 97.0279 0.00499846L97.0259 1.20579e-06ZM94.7 11.761L97.7279 9.079L100.442 12.073L97.4129 14.755L94.7 11.761ZM96.8569 16.934L99.8569 14.228L102.595 17.221L99.5669 19.904L96.8569 16.934ZM92.5449 6.661L95.5719 3.979L98.2849 6.973L95.2559 9.655L92.5449 6.661ZM98.0919 5.224L100.345 3.212L102.38 5.439L100.127 7.474L98.0919 5.224ZM102.114 14.444L104.366 12.432L106.401 14.683L104.148 16.696L102.114 14.444ZM104.1 18.971L106.353 16.959L108.387 19.186L106.135 21.221L104.1 18.971ZM105.021 8.625L106.521 7.284L107.877 8.769L106.377 10.11L105.021 8.625ZM103.083 4.194L104.583 2.829L105.94 4.338L104.44 5.679L103.083 4.194ZM106.935 13.055L108.435 11.714L109.821 13.196L108.295 14.537L106.935 13.055ZM100.176 9.726L102.429 7.714L104.463 9.941L102.211 11.951L100.176 9.726Z" fill="white"/>
<path d="M7.08982 8.63796H6.97582L4.83083 16.786H3.07683L0.444824 5.20996H2.26382L4.08382 13.847H4.19782L6.30982 5.20996H7.75582L10.0138 13.847H10.1278L11.7848 5.20996H13.6848L11.0518 16.786H9.29882L7.08982 8.63796Z" fill="white"/>
<path d="M15.9946 11.8583H19.7146C19.6336 10.1443 18.8046 9.45826 17.9276 9.45826C16.9366 9.45826 16.1726 10.2253 15.9946 11.8583ZM21.0136 14.9283V16.1693C20.1381 16.6692 19.1458 16.9284 18.1376 16.9203C15.4086 16.9203 14.2876 15.2203 14.2876 12.6433C14.2876 10.1603 15.5386 8.36426 17.9756 8.36426C20.0056 8.36426 21.2576 9.68726 21.2576 12.3483V12.9483H15.9576C15.9576 14.9073 16.7576 15.7723 18.4276 15.7723C19.3505 15.7361 20.2449 15.4423 21.0096 14.9243" fill="white"/>
<path d="M25.0369 15.611C25.5137 15.7998 26.0242 15.889 26.5369 15.873C27.7369 15.873 28.6479 15.121 28.6479 12.473C28.6479 10.399 27.9009 9.73004 26.8129 9.73004C26.184 9.74187 25.5707 9.92849 25.0419 10.269V15.607L25.0369 15.611ZM25.0539 9.06504C25.727 8.69507 26.4781 8.48948 27.2459 8.46503C29.2609 8.46503 30.3459 9.86504 30.3459 12.482C30.3459 15.535 28.8839 17.021 26.5289 17.021C25.4265 16.9908 24.3444 16.7177 23.3599 16.221V4.82304L25.0499 4.41504V9.06804L25.0539 9.06504Z" fill="white"/>
<path d="M37.6617 14.3291H37.7426L41.2186 5.20215H43.2346V16.7791H41.4807V8.38615H41.3336L38.0186 16.7791H36.9807L33.6646 8.57915H33.5186V16.7791H32.0566V5.20515H34.0226L37.6617 14.3291Z" fill="white"/>
<path d="M50.4026 12.6432C50.4026 10.4432 49.5096 9.50924 48.4026 9.50924C47.3306 9.50924 46.4026 10.4392 46.4026 12.6432C46.4026 14.8802 47.2486 15.7772 48.4026 15.7772C49.5566 15.7772 50.4026 14.8772 50.4026 12.6432ZM44.7026 12.6432C44.7026 9.78523 46.2626 8.36523 48.4026 8.36523C50.5426 8.36523 52.1026 9.78523 52.1026 12.6432C52.1026 15.4342 50.6246 16.9212 48.4026 16.9212C46.1806 16.9212 44.7026 15.4352 44.7026 12.6432Z" fill="white"/>
<path d="M53.395 9.57326C54.6447 8.81084 56.0744 8.39365 57.538 8.36426C59.487 8.36426 60.217 9.13226 60.217 10.8133V16.7243H58.529V11.1893C58.529 9.89926 57.896 9.67126 57.067 9.67126C56.3695 9.70958 55.6906 9.91097 55.085 10.2593V16.7243H53.395V9.57326Z" fill="white"/>
<path d="M63.7928 11.8583H67.5129C67.4329 10.1443 66.6039 9.45826 65.7259 9.45826C64.7349 9.45826 63.9718 10.2253 63.7928 11.8583ZM68.8119 14.9283V16.1693C67.9367 16.6691 66.9447 16.9282 65.9369 16.9203C63.2089 16.9203 62.0879 15.2203 62.0879 12.6433C62.0879 10.1603 63.3379 8.36426 65.7749 8.36426C67.8059 8.36426 69.0579 9.68726 69.0579 12.3483V12.9483H63.7579C63.7579 14.9073 64.5579 15.7723 66.2269 15.7723C67.1498 15.7362 68.0443 15.4424 68.8089 14.9243" fill="white"/>
<path d="M75.8067 8.36426H77.5457L74.6047 16.5263C73.7917 18.7793 72.8047 19.9553 70.9337 19.9553V18.6173C72.0387 18.6173 72.7207 17.7353 73.1107 16.5263L69.9907 8.36426H71.7807L73.8597 14.3723H73.9597L75.8067 8.36426Z" fill="white"/>
</g>
<defs>
<clipPath id="clip0">
<rect width="109.372" height="25.073" fill="white" transform="translate(0.444824)"/>
</clipPath>
</defs>
</svg>
